<svg xmlns="http://www.w3.org/2000/svg" xmlns:xlink="http://www.w3.org/1999/xlink" width="96" zoomAndPan="magnify" viewBox="0 0 72 67.499998" height="90" preserveAspectRatio="xMidYMid meet" version="1.0"><defs><clipPath id="be5d92e178"><path d="M 35.011719 15.382812 L 64.25 15.382812 L 64.25 43 L 35.011719 43 Z M 35.011719 15.382812 " clip-rule="nonzero"/></clipPath><clipPath id="6242436c20"><path d="M 63.453125 24.59375 C 63.933594 26.003906 64.25 27.621094 64.25 29.199219 C 64.25 30.78125 63.976562 32.300781 63.496094 33.699219 C 63.480469 33.730469 63.480469 33.761719 63.464844 33.789062 C 61.539062 39.050781 56.453125 42.925781 50.617188 43 L 35.015625 43 L 35.015625 15.382812 L 50.605469 15.382812 C 56.484375 15.457031 61.570312 19.273438 63.453125 24.59375 Z M 63.453125 24.59375 " clip-rule="nonzero"/></clipPath><clipPath id="70f969713b"><path d="M 7.746094 21.460938 L 29.527344 21.460938 L 29.527344 42.992188 L 7.746094 42.992188 Z M 7.746094 21.460938 " clip-rule="nonzero"/></clipPath><clipPath id="20e281b91b"><path d="M 8.367188 35.8125 C 7.992188 34.710938 7.746094 33.453125 7.746094 32.222656 C 7.746094 30.992188 7.957031 29.804688 8.332031 28.714844 C 8.34375 28.691406 8.34375 28.667969 8.355469 28.644531 C 9.855469 24.542969 13.820312 21.519531 18.351562 21.460938 L 29.488281 21.460938 L 29.488281 42.992188 L 18.359375 42.992188 C 13.796875 42.9375 9.832031 39.960938 8.367188 35.8125 Z M 8.367188 35.8125 " clip-rule="nonzero"/></clipPath><clipPath id="bf5b4afdeb"><path d="M 16.242188 4.742188 L 50 4.742188 L 50 34.753906 L 16.242188 34.753906 Z M 16.242188 4.742188 " clip-rule="nonzero"/></clipPath><clipPath id="ab92ce3dee"><path d="M 27.496094 5.714844 C 29.21875 5.125 31.191406 4.742188 33.121094 4.742188 C 35.054688 4.742188 36.910156 5.070312 38.621094 5.660156 C 38.660156 5.679688 38.695312 5.679688 38.730469 5.695312 C 45.160156 8.050781 49.894531 14.265625 49.984375 21.269531 L 49.984375 34.753906 L 16.242188 34.753906 L 16.242188 21.28125 C 16.332031 14.226562 20.996094 8.011719 27.496094 5.714844 Z M 27.496094 5.714844 " clip-rule="nonzero"/></clipPath><clipPath id="71c15f4a8a"><path d="M 23.679688 24.132812 L 42.546875 24.132812 L 42.546875 43 L 23.679688 43 Z M 23.679688 24.132812 " clip-rule="nonzero"/></clipPath><clipPath id="5b2a7748c6"><path d="M 16.242188 49.222656 L 54.214844 49.222656 L 54.214844 52.941406 L 16.242188 52.941406 Z M 16.242188 49.222656 " clip-rule="nonzero"/></clipPath><clipPath id="25775b8167"><path d="M 52.34375 49.222656 C 53.371094 49.222656 54.203125 50.058594 54.203125 51.082031 C 54.203125 52.109375 53.371094 52.941406 52.34375 52.941406 L 18.101562 52.941406 C 17.074219 52.941406 16.242188 52.109375 16.242188 51.082031 C 16.242188 50.058594 17.074219 49.222656 18.101562 49.222656 Z M 52.34375 49.222656 " clip-rule="nonzero"/></clipPath><clipPath id="36778f0faa"><path d="M 16.035156 56.585938 L 54 56.585938 L 54 60.304688 L 16.035156 60.304688 Z M 16.035156 56.585938 " clip-rule="nonzero"/></clipPath><clipPath id="43ca306651"><path d="M 52.136719 56.585938 C 53.164062 56.585938 53.996094 57.417969 53.996094 58.445312 C 53.996094 59.472656 53.164062 60.304688 52.136719 60.304688 L 17.894531 60.304688 C 16.867188 60.304688 16.035156 59.472656 16.035156 58.445312 C 16.035156 57.417969 16.867188 56.585938 17.894531 56.585938 Z M 52.136719 56.585938 " clip-rule="nonzero"/></clipPath></defs><g clip-path="url(#be5d92e178)"><g clip-path="url(#6242436c20)"><path fill="#c7c7c7" d="M 64.25 15.382812 L 64.25 43 L 35.011719 43 L 35.011719 15.382812 Z M 64.25 15.382812 " fill-opacity="1" fill-rule="nonzero"/></g></g><g clip-path="url(#70f969713b)"><g clip-path="url(#20e281b91b)"><path fill="#c7c7c7" d="M 7.746094 42.992188 L 7.746094 21.460938 L 29.445312 21.460938 L 29.445312 42.992188 Z M 7.746094 42.992188 " fill-opacity="1" fill-rule="nonzero"/></g></g><g clip-path="url(#bf5b4afdeb)"><g clip-path="url(#ab92ce3dee)"><path fill="#c7c7c7" d="M 16.242188 4.742188 L 50.007812 4.742188 L 50.007812 34.753906 L 16.242188 34.753906 Z M 16.242188 4.742188 " fill-opacity="1" fill-rule="nonzero"/></g></g><g clip-path="url(#71c15f4a8a)"><path fill="#c7c7c7" d="M 23.679688 24.132812 L 42.546875 24.132812 L 42.546875 43 L 23.679688 43 Z M 23.679688 24.132812 " fill-opacity="1" fill-rule="nonzero"/></g><g clip-path="url(#5b2a7748c6)"><g clip-path="url(#25775b8167)"><path fill="#c7c7c7" d="M 16.242188 49.222656 L 54.199219 49.222656 L 54.199219 52.941406 L 16.242188 52.941406 Z M 16.242188 49.222656 " fill-opacity="1" fill-rule="nonzero"/></g></g><g clip-path="url(#36778f0faa)"><g clip-path="url(#43ca306651)"><path fill="#c7c7c7" d="M 16.035156 56.585938 L 53.996094 56.585938 L 53.996094 60.304688 L 16.035156 60.304688 Z M 16.035156 56.585938 " fill-opacity="1" fill-rule="nonzero"/></g></g></svg>