<svg xmlns="http://www.w3.org/2000/svg" xmlns:xlink="http://www.w3.org/1999/xlink" width="96" zoomAndPan="magnify" viewBox="0 0 72 67.499998" height="90" preserveAspectRatio="xMidYMid meet" version="1.0"><defs><clipPath id="b12197921a"><path d="M 29 16 L 37 16 L 37 24 L 29 24 Z M 29 16 " clip-rule="nonzero"/></clipPath><clipPath id="53e31d7ab8"><path d="M 31.125 16.25 L 36.957031 22.082031 L 34.476562 24.5625 L 28.644531 18.730469 Z M 31.125 16.25 " clip-rule="nonzero"/></clipPath><clipPath id="166f26398d"><path d="M 35.707031 20.835938 C 36.390625 21.519531 36.390625 22.628906 35.707031 23.3125 C 35.023438 24 33.910156 24 33.226562 23.3125 L 29.882812 19.972656 C 29.199219 19.285156 29.199219 18.175781 29.882812 17.492188 C 30.570312 16.804688 31.679688 16.804688 32.363281 17.492188 Z M 35.707031 20.835938 " clip-rule="nonzero"/></clipPath><clipPath id="7b15179390"><path d="M 53 41 L 61 41 L 61 49 L 53 49 Z M 53 41 " clip-rule="nonzero"/></clipPath><clipPath id="a24eb990f7"><path d="M 55.621094 40.640625 L 61.453125 46.472656 L 58.972656 48.953125 L 53.140625 43.121094 Z M 55.621094 40.640625 " clip-rule="nonzero"/></clipPath><clipPath id="2a07605c2c"><path d="M 60.203125 45.222656 C 60.890625 45.910156 60.890625 47.019531 60.203125 47.703125 C 59.519531 48.386719 58.410156 48.386719 57.722656 47.703125 L 54.382812 44.359375 C 53.695312 43.675781 53.695312 42.566406 54.382812 41.878906 C 55.066406 41.195312 56.175781 41.195312 56.859375 41.878906 Z M 60.203125 45.222656 " clip-rule="nonzero"/></clipPath><clipPath id="9b49eb3b4a"><path d="M 53 16 L 61 16 L 61 24 L 53 24 Z M 53 16 " clip-rule="nonzero"/></clipPath><clipPath id="a69be7f6dd"><path d="M 61.4375 18.726562 L 55.605469 24.558594 L 53.125 22.078125 L 58.957031 16.246094 Z M 61.4375 18.726562 " clip-rule="nonzero"/></clipPath><clipPath id="add2715675"><path d="M 56.851562 23.308594 C 56.167969 23.996094 55.058594 23.996094 54.371094 23.308594 C 53.6875 22.625 53.6875 21.515625 54.371094 20.828125 L 57.714844 17.488281 C 58.402344 16.800781 59.511719 16.800781 60.195312 17.488281 C 60.882812 18.171875 60.882812 19.28125 60.195312 19.964844 Z M 56.851562 23.308594 " clip-rule="nonzero"/></clipPath><clipPath id="e4d8a27d4a"><path d="M 57.726562 30.808594 L 65.972656 30.808594 L 65.972656 34.316406 L 57.726562 34.316406 Z M 57.726562 30.808594 " clip-rule="nonzero"/></clipPath><clipPath id="9933937020"><path d="M 59.492188 34.316406 C 58.523438 34.316406 57.738281 33.53125 57.738281 32.5625 C 57.738281 31.59375 58.523438 30.808594 59.492188 30.808594 L 64.21875 30.808594 C 65.1875 30.808594 65.972656 31.59375 65.972656 32.5625 C 65.972656 33.53125 65.1875 34.316406 64.21875 34.316406 Z M 59.492188 34.316406 " clip-rule="nonzero"/></clipPath><clipPath id="bd4fab2592"><path d="M 43.175781 11.054688 L 46.683594 11.054688 L 46.683594 19.300781 L 43.175781 19.300781 Z M 43.175781 11.054688 " clip-rule="nonzero"/></clipPath><clipPath id="10baad91e1"><path d="M 46.683594 17.535156 C 46.683594 18.503906 45.898438 19.289062 44.929688 19.289062 C 43.960938 19.289062 43.175781 18.503906 43.175781 17.535156 L 43.175781 12.808594 C 43.175781 11.839844 43.960938 11.054688 44.929688 11.054688 C 45.898438 11.054688 46.683594 11.839844 46.683594 12.808594 Z M 46.683594 17.535156 " clip-rule="nonzero"/></clipPath><clipPath id="387cbab0c9"><path d="M 34.199219 21.828125 L 55.679688 21.828125 L 55.679688 43.304688 L 34.199219 43.304688 Z M 34.199219 21.828125 " clip-rule="nonzero"/></clipPath><clipPath id="cf1929f9d0"><path d="M 44.941406 21.828125 C 39.007812 21.828125 34.199219 26.636719 34.199219 32.566406 C 34.199219 38.5 39.007812 43.304688 44.941406 43.304688 C 50.871094 43.304688 55.679688 38.5 55.679688 32.566406 C 55.679688 26.636719 50.871094 21.828125 44.941406 21.828125 Z M 44.941406 21.828125 " clip-rule="nonzero"/></clipPath><clipPath id="7d10500f16"><path d="M 17.09375 38.71875 L 31.984375 38.71875 L 31.984375 53.609375 L 17.09375 53.609375 Z M 17.09375 38.71875 " clip-rule="nonzero"/></clipPath><clipPath id="b8f0ccda77"><path d="M 26.058594 32.613281 L 48.285156 32.613281 L 48.285156 53.609375 L 26.058594 53.609375 Z M 26.058594 32.613281 " clip-rule="nonzero"/></clipPath><clipPath id="0d79040089"><path d="M 47.679688 39.617188 C 48.042969 40.691406 48.285156 41.917969 48.285156 43.117188 C 48.285156 44.320312 48.078125 45.476562 47.710938 46.539062 C 47.699219 46.5625 47.699219 46.585938 47.691406 46.609375 C 46.226562 50.609375 42.359375 53.554688 37.921875 53.609375 L 26.0625 53.609375 L 26.0625 32.613281 L 37.910156 32.613281 C 42.382812 32.671875 46.25 35.570312 47.679688 39.617188 Z M 47.679688 39.617188 " clip-rule="nonzero"/></clipPath><clipPath id="f7aa9bf69e"><path d="M 5.34375 37.230469 L 21.90625 37.230469 L 21.90625 53.601562 L 5.34375 53.601562 Z M 5.34375 37.230469 " clip-rule="nonzero"/></clipPath><clipPath id="ce484c90ee"><path d="M 5.816406 48.140625 C 5.53125 47.304688 5.34375 46.347656 5.34375 45.414062 C 5.34375 44.476562 5.503906 43.574219 5.789062 42.746094 C 5.800781 42.726562 5.800781 42.710938 5.808594 42.691406 C 6.949219 39.574219 9.964844 37.277344 13.40625 37.230469 L 21.875 37.230469 L 21.875 53.601562 L 13.414062 53.601562 C 9.945312 53.558594 6.933594 51.296875 5.816406 48.140625 Z M 5.816406 48.140625 " clip-rule="nonzero"/></clipPath><clipPath id="eb09526df7"><path d="M 11.796875 24.523438 L 37.464844 24.523438 L 37.464844 47.339844 L 11.796875 47.339844 Z M 11.796875 24.523438 " clip-rule="nonzero"/></clipPath><clipPath id="39999670d4"><path d="M 20.351562 25.261719 C 21.664062 24.816406 23.160156 24.523438 24.628906 24.523438 C 26.097656 24.523438 27.507812 24.773438 28.808594 25.222656 C 28.835938 25.234375 28.867188 25.234375 28.894531 25.25 C 33.78125 27.039062 37.378906 31.761719 37.449219 37.089844 L 37.449219 47.339844 L 11.796875 47.339844 L 11.796875 37.09375 C 11.863281 31.734375 15.410156 27.011719 20.351562 25.261719 Z M 20.351562 25.261719 " clip-rule="nonzero"/></clipPath><clipPath id="cf7defe52a"><path d="M 17.449219 39.261719 L 31.792969 39.261719 L 31.792969 53.609375 L 17.449219 53.609375 Z M 17.449219 39.261719 " clip-rule="nonzero"/></clipPath></defs><g clip-path="url(#b12197921a)"><g clip-path="url(#53e31d7ab8)"><g clip-path="url(#166f26398d)"><path fill="#fad631" d="M 31.125 16.25 L 36.945312 22.074219 L 34.464844 24.554688 L 28.644531 18.730469 Z M 31.125 16.25 " fill-opacity="1" fill-rule="nonzero"/></g></g></g><g clip-path="url(#7b15179390)"><g clip-path="url(#a24eb990f7)"><g clip-path="url(#2a07605c2c)"><path fill="#fad631" d="M 55.621094 40.640625 L 61.445312 46.460938 L 58.964844 48.941406 L 53.140625 43.121094 Z M 55.621094 40.640625 " fill-opacity="1" fill-rule="nonzero"/></g></g></g><g clip-path="url(#9b49eb3b4a)"><g clip-path="url(#a69be7f6dd)"><g clip-path="url(#add2715675)"><path fill="#fad631" d="M 61.4375 18.726562 L 55.613281 24.550781 L 53.132812 22.070312 L 58.957031 16.246094 Z M 61.4375 18.726562 " fill-opacity="1" fill-rule="nonzero"/></g></g></g><g clip-path="url(#e4d8a27d4a)"><g clip-path="url(#9933937020)"><path fill="#fad631" d="M 65.972656 34.316406 L 57.738281 34.316406 L 57.738281 30.808594 L 65.972656 30.808594 Z M 65.972656 34.316406 " fill-opacity="1" fill-rule="nonzero"/></g></g><g clip-path="url(#bd4fab2592)"><g clip-path="url(#10baad91e1)"><path fill="#fad631" d="M 46.683594 11.054688 L 46.683594 19.289062 L 43.175781 19.289062 L 43.175781 11.054688 Z M 46.683594 11.054688 " fill-opacity="1" fill-rule="nonzero"/></g></g><g clip-path="url(#387cbab0c9)"><g clip-path="url(#cf1929f9d0)"><path fill="#fad631" d="M 34.199219 21.828125 L 55.679688 21.828125 L 55.679688 43.304688 L 34.199219 43.304688 Z M 34.199219 21.828125 " fill-opacity="1" fill-rule="nonzero"/></g></g><g clip-path="url(#7d10500f16)"><path fill="#ffffff" d="M 17.09375 38.71875 L 31.984375 38.71875 L 31.984375 53.609375 L 17.09375 53.609375 Z M 17.09375 38.71875 " fill-opacity="1" fill-rule="nonzero"/></g><g clip-path="url(#b8f0ccda77)"><g clip-path="url(#0d79040089)"><path fill="#c7c7c7" d="M 48.285156 32.613281 L 48.285156 53.609375 L 26.058594 53.609375 L 26.058594 32.613281 Z M 48.285156 32.613281 " fill-opacity="1" fill-rule="nonzero"/></g></g><g clip-path="url(#f7aa9bf69e)"><g clip-path="url(#ce484c90ee)"><path fill="#c7c7c7" d="M 5.34375 53.601562 L 5.34375 37.230469 L 21.839844 37.230469 L 21.839844 53.601562 Z M 5.34375 53.601562 " fill-opacity="1" fill-rule="nonzero"/></g></g><g clip-path="url(#eb09526df7)"><g clip-path="url(#39999670d4)"><path fill="#c7c7c7" d="M 11.796875 24.523438 L 37.464844 24.523438 L 37.464844 47.339844 L 11.796875 47.339844 Z M 11.796875 24.523438 " fill-opacity="1" fill-rule="nonzero"/></g></g><g clip-path="url(#cf7defe52a)"><path fill="#c7c7c7" d="M 17.449219 39.261719 L 31.792969 39.261719 L 31.792969 53.609375 L 17.449219 53.609375 Z M 17.449219 39.261719 " fill-opacity="1" fill-rule="nonzero"/></g></svg>