<svg xmlns="http://www.w3.org/2000/svg" xmlns:xlink="http://www.w3.org/1999/xlink" width="96" zoomAndPan="magnify" viewBox="0 0 72 67.499998" height="90" preserveAspectRatio="xMidYMid meet" version="1.0"><defs><clipPath id="911493c225"><path d="M 35.011719 15.382812 L 64.246094 15.382812 L 64.246094 43 L 35.011719 43 Z M 35.011719 15.382812 " clip-rule="nonzero"/></clipPath><clipPath id="46b0ba010f"><path d="M 63.449219 24.59375 C 63.929688 26.003906 64.246094 27.621094 64.246094 29.199219 C 64.246094 30.777344 63.976562 32.300781 63.496094 33.699219 C 63.480469 33.730469 63.480469 33.761719 63.464844 33.789062 C 61.539062 39.050781 56.453125 42.925781 50.613281 43 L 35.015625 43 L 35.015625 15.382812 L 50.601562 15.382812 C 56.484375 15.457031 61.570312 19.273438 63.449219 24.59375 Z M 63.449219 24.59375 " clip-rule="nonzero"/></clipPath><clipPath id="cdba745b4f"><path d="M 7.746094 21.460938 L 29.53125 21.460938 L 29.53125 42.992188 L 7.746094 42.992188 Z M 7.746094 21.460938 " clip-rule="nonzero"/></clipPath><clipPath id="169ee7ea5a"><path d="M 8.367188 35.8125 C 7.992188 34.710938 7.746094 33.453125 7.746094 32.222656 C 7.746094 30.992188 7.957031 29.804688 8.332031 28.714844 C 8.34375 28.691406 8.34375 28.667969 8.355469 28.644531 C 9.859375 24.542969 13.824219 21.519531 18.351562 21.460938 L 29.488281 21.460938 L 29.488281 42.992188 L 18.359375 42.992188 C 13.800781 42.9375 9.835938 39.960938 8.367188 35.8125 Z M 8.367188 35.8125 " clip-rule="nonzero"/></clipPath><clipPath id="de828c37ca"><path d="M 16.242188 4.742188 L 50 4.742188 L 50 34.753906 L 16.242188 34.753906 Z M 16.242188 4.742188 " clip-rule="nonzero"/></clipPath><clipPath id="87959ce980"><path d="M 27.496094 5.714844 C 29.21875 5.125 31.191406 4.742188 33.121094 4.742188 C 35.054688 4.742188 36.910156 5.070312 38.621094 5.660156 C 38.660156 5.679688 38.695312 5.679688 38.730469 5.695312 C 45.160156 8.050781 49.894531 14.265625 49.984375 21.269531 L 49.984375 34.753906 L 16.242188 34.753906 L 16.242188 21.28125 C 16.332031 14.226562 20.996094 8.011719 27.496094 5.714844 Z M 27.496094 5.714844 " clip-rule="nonzero"/></clipPath><clipPath id="8b83ec8a6b"><path d="M 23.679688 24.132812 L 42.546875 24.132812 L 42.546875 43 L 23.679688 43 Z M 23.679688 24.132812 " clip-rule="nonzero"/></clipPath><clipPath id="16ec3b7cef"><path d="M 12 45 L 23 45 L 23 62 L 12 62 Z M 12 45 " clip-rule="nonzero"/></clipPath><clipPath id="f73a100bd3"><path d="M 11.636719 60.402344 L 20.457031 45.042969 L 23.6875 46.898438 L 14.867188 62.257812 Z M 11.636719 60.402344 " clip-rule="nonzero"/></clipPath><clipPath id="625dcf32d8"><path d="M 19.207031 47.222656 C 19.898438 46.019531 21.179688 45.460938 22.070312 45.972656 C 22.964844 46.484375 23.125 47.875 22.433594 49.078125 L 16.117188 60.078125 C 15.425781 61.28125 14.144531 61.839844 13.253906 61.328125 C 12.359375 60.816406 12.199219 59.425781 12.890625 58.222656 Z M 19.207031 47.222656 " clip-rule="nonzero"/></clipPath><clipPath id="f141a6ab26"><path d="M 21 45 L 33 45 L 33 62 L 21 62 Z M 21 45 " clip-rule="nonzero"/></clipPath><clipPath id="185ca3b5e0"><path d="M 21.019531 60.402344 L 29.839844 45.042969 L 33.066406 46.898438 L 24.246094 62.257812 Z M 21.019531 60.402344 " clip-rule="nonzero"/></clipPath><clipPath id="02264da2df"><path d="M 28.585938 47.222656 C 29.277344 46.019531 30.5625 45.460938 31.453125 45.972656 C 32.34375 46.484375 32.507812 47.875 31.816406 49.078125 L 25.5 60.078125 C 24.808594 61.28125 23.523438 61.839844 22.632812 61.328125 C 21.742188 60.816406 21.578125 59.425781 22.269531 58.222656 Z M 28.585938 47.222656 " clip-rule="nonzero"/></clipPath><clipPath id="b5f0603984"><path d="M 31 45 L 43 45 L 43 62 L 31 62 Z M 31 45 " clip-rule="nonzero"/></clipPath><clipPath id="b1167505f2"><path d="M 30.996094 60.402344 L 39.816406 45.042969 L 43.042969 46.898438 L 34.222656 62.257812 Z M 30.996094 60.402344 " clip-rule="nonzero"/></clipPath><clipPath id="07f8241ed9"><path d="M 38.5625 47.222656 C 39.253906 46.019531 40.535156 45.460938 41.429688 45.972656 C 42.320312 46.484375 42.480469 47.875 41.789062 49.078125 L 35.472656 60.078125 C 34.785156 61.28125 33.5 61.839844 32.609375 61.328125 C 31.71875 60.816406 31.554688 59.425781 32.246094 58.222656 Z M 38.5625 47.222656 " clip-rule="nonzero"/></clipPath><clipPath id="aa0f534477"><path d="M 41 45 L 52 45 L 52 62 L 41 62 Z M 41 45 " clip-rule="nonzero"/></clipPath><clipPath id="7a87babc8b"><path d="M 40.226562 60.402344 L 49.046875 45.042969 L 52.273438 46.898438 L 43.453125 62.257812 Z M 40.226562 60.402344 " clip-rule="nonzero"/></clipPath><clipPath id="f86b5da7e1"><path d="M 47.792969 47.222656 C 48.484375 46.019531 49.769531 45.460938 50.660156 45.972656 C 51.550781 46.484375 51.714844 47.875 51.023438 49.078125 L 44.707031 60.078125 C 44.015625 61.28125 42.730469 61.839844 41.839844 61.328125 C 40.949219 60.816406 40.785156 59.425781 41.476562 58.222656 Z M 47.792969 47.222656 " clip-rule="nonzero"/></clipPath></defs><g clip-path="url(#911493c225)"><g clip-path="url(#46b0ba010f)"><path fill="#c7c7c7" d="M 64.246094 15.382812 L 64.246094 43 L 35.011719 43 L 35.011719 15.382812 Z M 64.246094 15.382812 " fill-opacity="1" fill-rule="nonzero"/></g></g><g clip-path="url(#cdba745b4f)"><g clip-path="url(#169ee7ea5a)"><path fill="#c7c7c7" d="M 7.746094 42.992188 L 7.746094 21.460938 L 29.445312 21.460938 L 29.445312 42.992188 Z M 7.746094 42.992188 " fill-opacity="1" fill-rule="nonzero"/></g></g><g clip-path="url(#de828c37ca)"><g clip-path="url(#87959ce980)"><path fill="#c7c7c7" d="M 16.242188 4.742188 L 50.007812 4.742188 L 50.007812 34.753906 L 16.242188 34.753906 Z M 16.242188 4.742188 " fill-opacity="1" fill-rule="nonzero"/></g></g><g clip-path="url(#8b83ec8a6b)"><path fill="#c7c7c7" d="M 23.679688 24.132812 L 42.546875 24.132812 L 42.546875 43 L 23.679688 43 Z M 23.679688 24.132812 " fill-opacity="1" fill-rule="nonzero"/></g><g clip-path="url(#16ec3b7cef)"><g clip-path="url(#f73a100bd3)"><g clip-path="url(#625dcf32d8)"><path fill="#3bc9eb" d="M 11.636719 60.402344 L 20.457031 45.042969 L 23.6875 46.898438 L 14.867188 62.257812 Z M 11.636719 60.402344 " fill-opacity="1" fill-rule="nonzero"/></g></g></g><g clip-path="url(#f141a6ab26)"><g clip-path="url(#185ca3b5e0)"><g clip-path="url(#02264da2df)"><path fill="#3bc9eb" d="M 21.019531 60.402344 L 29.839844 45.042969 L 33.066406 46.898438 L 24.246094 62.257812 Z M 21.019531 60.402344 " fill-opacity="1" fill-rule="nonzero"/></g></g></g><g clip-path="url(#b5f0603984)"><g clip-path="url(#b1167505f2)"><g clip-path="url(#07f8241ed9)"><path fill="#3bc9eb" d="M 30.996094 60.402344 L 39.816406 45.042969 L 43.042969 46.898438 L 34.222656 62.257812 Z M 30.996094 60.402344 " fill-opacity="1" fill-rule="nonzero"/></g></g></g><g clip-path="url(#aa0f534477)"><g clip-path="url(#7a87babc8b)"><g clip-path="url(#f86b5da7e1)"><path fill="#3bc9eb" d="M 40.226562 60.402344 L 49.046875 45.042969 L 52.273438 46.898438 L 43.453125 62.257812 Z M 40.226562 60.402344 " fill-opacity="1" fill-rule="nonzero"/></g></g></g></svg>