<svg xmlns="http://www.w3.org/2000/svg" xmlns:xlink="http://www.w3.org/1999/xlink" width="96" zoomAndPan="magnify" viewBox="0 0 72 67.499998" height="90" preserveAspectRatio="xMidYMid meet" version="1.0"><defs><clipPath id="d9eae0803d"><path d="M 45 43 L 49 43 L 49 53 L 45 53 Z M 45 43 " clip-rule="nonzero"/></clipPath><clipPath id="2ffcf96281"><path d="M 48.316406 53.027344 L 44.914062 43.949219 L 45.539062 43.71875 L 48.9375 52.792969 Z M 48.316406 53.027344 " clip-rule="nonzero"/></clipPath><clipPath id="aaf759db56"><path d="M 45.03125 44.261719 C 44.96875 44.089844 45.054688 43.898438 45.226562 43.835938 C 45.398438 43.769531 45.589844 43.855469 45.652344 44.027344 L 48.824219 52.480469 C 48.886719 52.652344 48.800781 52.84375 48.628906 52.910156 C 48.457031 52.972656 48.265625 52.886719 48.199219 52.714844 Z M 45.03125 44.261719 " clip-rule="nonzero"/></clipPath><clipPath id="56524a0dc7"><path d="M 47 50 L 50 50 L 50 52 L 47 52 Z M 47 50 " clip-rule="nonzero"/></clipPath><clipPath id="6887fb243e"><path d="M 49.765625 51.855469 L 47.675781 51.332031 L 47.839844 50.675781 L 49.929688 51.203125 Z M 49.765625 51.855469 " clip-rule="nonzero"/></clipPath><clipPath id="effb741c20"><path d="M 48 51.410156 C 47.820312 51.367188 47.714844 51.183594 47.757812 51.003906 C 47.804688 50.824219 47.984375 50.714844 48.164062 50.757812 L 49.609375 51.121094 C 49.785156 51.167969 49.894531 51.347656 49.847656 51.53125 C 49.804688 51.710938 49.621094 51.820312 49.445312 51.773438 Z M 48 51.410156 " clip-rule="nonzero"/></clipPath><clipPath id="4662c3d75f"><path d="M 44 45 L 47 45 L 47 47 L 44 47 Z M 44 45 " clip-rule="nonzero"/></clipPath><clipPath id="6bf45cc0aa"><path d="M 46.042969 46.152344 L 43.953125 45.625 L 44.117188 44.972656 L 46.207031 45.496094 Z M 46.042969 46.152344 " clip-rule="nonzero"/></clipPath><clipPath id="aa41e68173"><path d="M 44.277344 45.707031 C 44.097656 45.660156 43.988281 45.480469 44.035156 45.296875 C 44.082031 45.117188 44.261719 45.007812 44.441406 45.054688 L 45.882812 45.417969 C 46.0625 45.460938 46.167969 45.644531 46.125 45.824219 C 46.078125 46.003906 45.898438 46.113281 45.71875 46.070312 Z M 44.277344 45.707031 " clip-rule="nonzero"/></clipPath><clipPath id="5059fbc6c8"><path d="M 46 50 L 49 50 L 49 53 L 46 53 Z M 46 50 " clip-rule="nonzero"/></clipPath><clipPath id="65ce9fe667"><path d="M 46.527344 52.480469 L 47.75 50.707031 L 48.304688 51.085938 L 47.082031 52.863281 Z M 46.527344 52.480469 " clip-rule="nonzero"/></clipPath><clipPath id="3111c8dac6"><path d="M 47.558594 50.980469 C 47.664062 50.828125 47.871094 50.792969 48.023438 50.898438 C 48.179688 51.003906 48.21875 51.210938 48.113281 51.363281 L 47.269531 52.589844 C 47.164062 52.742188 46.957031 52.777344 46.804688 52.671875 C 46.648438 52.566406 46.609375 52.359375 46.714844 52.207031 Z M 47.558594 50.980469 " clip-rule="nonzero"/></clipPath><clipPath id="c6ccad5c7b"><path d="M 45 44 L 48 44 L 48 46 L 45 46 Z M 45 44 " clip-rule="nonzero"/></clipPath><clipPath id="a38da3bebd"><path d="M 45.582031 45.738281 L 46.804688 43.964844 L 47.359375 44.34375 L 46.136719 46.121094 Z M 45.582031 45.738281 " clip-rule="nonzero"/></clipPath><clipPath id="08bac7c800"><path d="M 46.613281 44.238281 C 46.71875 44.089844 46.925781 44.050781 47.082031 44.15625 C 47.234375 44.261719 47.273438 44.46875 47.167969 44.621094 L 46.324219 45.847656 C 46.21875 46 46.011719 46.035156 45.859375 45.929688 C 45.707031 45.824219 45.667969 45.617188 45.769531 45.464844 Z M 46.613281 44.238281 " clip-rule="nonzero"/></clipPath><clipPath id="6e10744340"><path d="M 43 44 L 51 44 L 51 53 L 43 53 Z M 43 44 " clip-rule="nonzero"/></clipPath><clipPath id="6e8ab2ac7f"><path d="M 43.742188 51.867188 L 49.871094 44.355469 L 50.390625 44.78125 L 44.265625 52.292969 Z M 43.742188 51.867188 " clip-rule="nonzero"/></clipPath><clipPath id="6a9a3d4bdd"><path d="M 49.660156 44.613281 C 49.773438 44.472656 49.984375 44.453125 50.128906 44.570312 C 50.273438 44.6875 50.296875 44.898438 50.179688 45.039062 L 44.472656 52.035156 C 44.359375 52.175781 44.148438 52.195312 44.003906 52.078125 C 43.859375 51.960938 43.835938 51.75 43.953125 51.609375 Z M 49.660156 44.613281 " clip-rule="nonzero"/></clipPath><clipPath id="d79ff93d63"><path d="M 44 50 L 47 50 L 47 53 L 44 53 Z M 44 50 " clip-rule="nonzero"/></clipPath><clipPath id="520ecd7e1a"><path d="M 45.492188 52.523438 L 44.894531 50.453125 L 45.535156 50.269531 L 46.132812 52.339844 Z M 45.492188 52.523438 " clip-rule="nonzero"/></clipPath><clipPath id="aef0f2f11c"><path d="M 44.988281 50.773438 C 44.9375 50.597656 45.039062 50.414062 45.214844 50.363281 C 45.390625 50.3125 45.574219 50.414062 45.625 50.589844 L 46.039062 52.019531 C 46.089844 52.195312 45.988281 52.378906 45.8125 52.429688 C 45.636719 52.480469 45.453125 52.378906 45.402344 52.203125 Z M 44.988281 50.773438 " clip-rule="nonzero"/></clipPath><clipPath id="554aa8a886"><path d="M 48 44 L 50 44 L 50 47 L 48 47 Z M 48 44 " clip-rule="nonzero"/></clipPath><clipPath id="211baa65f9"><path d="M 48.546875 46.433594 L 47.949219 44.363281 L 48.585938 44.179688 L 49.183594 46.246094 Z M 48.546875 46.433594 " clip-rule="nonzero"/></clipPath><clipPath id="08b3ec47f4"><path d="M 48.039062 44.683594 C 47.988281 44.507812 48.089844 44.320312 48.269531 44.269531 C 48.445312 44.21875 48.628906 44.320312 48.679688 44.496094 L 49.09375 45.929688 C 49.144531 46.105469 49.042969 46.289062 48.867188 46.339844 C 48.691406 46.390625 48.503906 46.289062 48.453125 46.113281 Z M 48.039062 44.683594 " clip-rule="nonzero"/></clipPath><clipPath id="b8b8e4cff1"><path d="M 43 50 L 46 50 L 46 51 L 43 51 Z M 43 50 " clip-rule="nonzero"/></clipPath><clipPath id="5b6585ecb1"><path d="M 43.316406 50.046875 L 45.46875 50.207031 L 45.417969 50.878906 L 43.269531 50.714844 Z M 43.316406 50.046875 " clip-rule="nonzero"/></clipPath><clipPath id="a9c4ef1bd0"><path d="M 45.132812 50.183594 C 45.316406 50.195312 45.453125 50.359375 45.441406 50.542969 C 45.425781 50.726562 45.265625 50.867188 45.085938 50.851562 L 43.597656 50.742188 C 43.417969 50.726562 43.277344 50.566406 43.292969 50.382812 C 43.308594 50.195312 43.464844 50.054688 43.648438 50.070312 Z M 45.132812 50.183594 " clip-rule="nonzero"/></clipPath><clipPath id="fb0770c348"><path d="M 48 45 L 51 45 L 51 47 L 48 47 Z M 48 45 " clip-rule="nonzero"/></clipPath><clipPath id="5b225b276b"><path d="M 48.667969 45.832031 L 50.816406 45.996094 L 50.765625 46.667969 L 48.617188 46.503906 Z M 48.667969 45.832031 " clip-rule="nonzero"/></clipPath><clipPath id="85669e4c8d"><path d="M 50.484375 45.96875 C 50.667969 45.984375 50.804688 46.144531 50.789062 46.332031 C 50.773438 46.515625 50.617188 46.65625 50.433594 46.640625 L 48.949219 46.53125 C 48.765625 46.515625 48.628906 46.355469 48.640625 46.167969 C 48.65625 45.984375 48.816406 45.84375 49 45.859375 Z M 50.484375 45.96875 " clip-rule="nonzero"/></clipPath><clipPath id="49e3162143"><path d="M 42 47 L 52 47 L 52 50 L 42 50 Z M 42 47 " clip-rule="nonzero"/></clipPath><clipPath id="5816d08c64"><path d="M 51.65625 49.484375 L 42.089844 47.929688 L 42.195312 47.265625 L 51.765625 48.820312 Z M 51.65625 49.484375 " clip-rule="nonzero"/></clipPath><clipPath id="434e828ee1"><path d="M 42.417969 47.984375 C 42.238281 47.957031 42.113281 47.78125 42.144531 47.597656 C 42.175781 47.414062 42.34375 47.289062 42.527344 47.320312 L 51.4375 48.769531 C 51.617188 48.796875 51.742188 48.96875 51.710938 49.152344 C 51.679688 49.335938 51.511719 49.460938 51.328125 49.433594 Z M 42.417969 47.984375 " clip-rule="nonzero"/></clipPath><clipPath id="f24bf88bd1"><path d="M 49 47 L 52 47 L 52 50 L 49 50 Z M 49 47 " clip-rule="nonzero"/></clipPath><clipPath id="e820264897"><path d="M 51.359375 47.640625 L 49.863281 49.195312 L 49.378906 48.726562 L 50.871094 47.175781 Z M 51.359375 47.640625 " clip-rule="nonzero"/></clipPath><clipPath id="7c422e4e7c"><path d="M 50.09375 48.953125 C 49.96875 49.085938 49.753906 49.089844 49.621094 48.960938 C 49.488281 48.832031 49.484375 48.621094 49.609375 48.488281 L 50.640625 47.414062 C 50.769531 47.28125 50.980469 47.277344 51.117188 47.40625 C 51.25 47.535156 51.253906 47.75 51.128906 47.878906 Z M 50.09375 48.953125 " clip-rule="nonzero"/></clipPath><clipPath id="48a0b40f31"><path d="M 42 47 L 45 47 L 45 50 L 42 50 Z M 42 47 " clip-rule="nonzero"/></clipPath><clipPath id="1ee25b7665"><path d="M 44.554688 48.039062 L 43.0625 49.59375 L 42.574219 49.125 L 44.070312 47.574219 Z M 44.554688 48.039062 " clip-rule="nonzero"/></clipPath><clipPath id="91e4584aab"><path d="M 43.292969 49.351562 C 43.164062 49.484375 42.953125 49.488281 42.820312 49.359375 C 42.6875 49.230469 42.679688 49.019531 42.808594 48.886719 L 43.839844 47.8125 C 43.96875 47.679688 44.179688 47.679688 44.3125 47.808594 C 44.449219 47.9375 44.453125 48.148438 44.324219 48.28125 Z M 43.292969 49.351562 " clip-rule="nonzero"/></clipPath><clipPath id="203e82f275"><path d="M 49 48 L 51 48 L 51 51 L 49 51 Z M 49 48 " clip-rule="nonzero"/></clipPath><clipPath id="37cea051aa"><path d="M 50.292969 50.757812 L 49.359375 48.816406 L 49.960938 48.527344 L 50.894531 50.46875 Z M 50.292969 50.757812 " clip-rule="nonzero"/></clipPath><clipPath id="77c9b714d7"><path d="M 49.503906 49.117188 C 49.425781 48.949219 49.496094 48.75 49.660156 48.671875 C 49.828125 48.59375 50.023438 48.664062 50.105469 48.828125 L 50.75 50.171875 C 50.828125 50.335938 50.757812 50.535156 50.59375 50.613281 C 50.429688 50.691406 50.230469 50.625 50.148438 50.457031 Z M 49.503906 49.117188 " clip-rule="nonzero"/></clipPath><clipPath id="96c64bec01"><path d="M 43 46 L 45 46 L 45 49 L 43 49 Z M 43 46 " clip-rule="nonzero"/></clipPath><clipPath id="993b49fa3d"><path d="M 43.972656 48.226562 L 43.039062 46.285156 L 43.640625 46 L 44.574219 47.941406 Z M 43.972656 48.226562 " clip-rule="nonzero"/></clipPath><clipPath id="778cf7724b"><path d="M 43.183594 46.585938 C 43.105469 46.421875 43.175781 46.222656 43.339844 46.144531 C 43.503906 46.0625 43.703125 46.132812 43.785156 46.296875 L 44.429688 47.640625 C 44.507812 47.804688 44.4375 48.003906 44.273438 48.085938 C 44.109375 48.164062 43.910156 48.09375 43.828125 47.929688 Z M 43.183594 46.585938 " clip-rule="nonzero"/></clipPath><clipPath id="2c0f0ac962"><path d="M 35.011719 15.382812 L 64.25 15.382812 L 64.25 43 L 35.011719 43 Z M 35.011719 15.382812 " clip-rule="nonzero"/></clipPath><clipPath id="6bc90d535e"><path d="M 63.453125 24.59375 C 63.933594 26.003906 64.25 27.617188 64.25 29.199219 C 64.25 30.777344 63.980469 32.296875 63.496094 33.699219 C 63.480469 33.730469 63.480469 33.757812 63.46875 33.789062 C 61.542969 39.050781 56.457031 42.925781 50.617188 43 L 35.015625 43 L 35.015625 15.382812 L 50.605469 15.382812 C 56.484375 15.457031 61.570312 19.273438 63.453125 24.59375 Z M 63.453125 24.59375 " clip-rule="nonzero"/></clipPath><clipPath id="33183053a6"><path d="M 7.75 21.46875 L 29.535156 21.46875 L 29.535156 43 L 7.75 43 Z M 7.75 21.46875 " clip-rule="nonzero"/></clipPath><clipPath id="2d438b8201"><path d="M 8.371094 35.816406 C 7.996094 34.71875 7.75 33.460938 7.75 32.226562 C 7.75 30.996094 7.960938 29.808594 8.335938 28.71875 C 8.347656 28.695312 8.347656 28.671875 8.359375 28.648438 C 9.863281 24.546875 13.828125 21.523438 18.355469 21.46875 L 29.492188 21.46875 L 29.492188 43 L 18.363281 43 C 13.804688 42.941406 9.839844 39.964844 8.371094 35.816406 Z M 8.371094 35.816406 " clip-rule="nonzero"/></clipPath><clipPath id="85f8be2575"><path d="M 16.242188 4.738281 L 50 4.738281 L 50 34.753906 L 16.242188 34.753906 Z M 16.242188 4.738281 " clip-rule="nonzero"/></clipPath><clipPath id="e053e7f108"><path d="M 27.496094 5.714844 C 29.222656 5.125 31.195312 4.738281 33.125 4.738281 C 35.054688 4.738281 36.910156 5.070312 38.625 5.660156 C 38.660156 5.675781 38.695312 5.675781 38.734375 5.695312 C 45.160156 8.050781 49.894531 14.261719 49.988281 21.269531 L 49.988281 34.753906 L 16.242188 34.753906 L 16.242188 21.28125 C 16.332031 14.226562 20.996094 8.011719 27.496094 5.714844 Z M 27.496094 5.714844 " clip-rule="nonzero"/></clipPath><clipPath id="4c57186aed"><path d="M 23.679688 24.132812 L 42.550781 24.132812 L 42.550781 43 L 23.679688 43 Z M 23.679688 24.132812 " clip-rule="nonzero"/></clipPath><clipPath id="6985cad661"><path d="M 31 55 L 41 55 L 41 61 L 31 61 Z M 31 55 " clip-rule="nonzero"/></clipPath><clipPath id="c9771f3b07"><path d="M 40.347656 55.902344 L 32.054688 60.808594 L 31.71875 60.242188 L 40.011719 55.332031 Z M 40.347656 55.902344 " clip-rule="nonzero"/></clipPath><clipPath id="ab43d90bbb"><path d="M 32.339844 60.640625 C 32.179688 60.734375 31.980469 60.683594 31.886719 60.523438 C 31.792969 60.367188 31.84375 60.164062 32.003906 60.070312 L 39.726562 55.5 C 39.882812 55.40625 40.085938 55.460938 40.179688 55.617188 C 40.273438 55.773438 40.21875 55.976562 40.0625 56.070312 Z M 32.339844 60.640625 " clip-rule="nonzero"/></clipPath><clipPath id="e094189adb"><path d="M 38 54 L 39 54 L 39 57 L 38 57 Z M 38 54 " clip-rule="nonzero"/></clipPath><clipPath id="b5845244fb"><path d="M 38.941406 54.6875 L 38.792969 56.824219 L 38.132812 56.777344 L 38.285156 54.640625 Z M 38.941406 54.6875 " clip-rule="nonzero"/></clipPath><clipPath id="b4e34953e9"><path d="M 38.816406 56.492188 C 38.800781 56.675781 38.644531 56.8125 38.460938 56.800781 C 38.28125 56.785156 38.144531 56.628906 38.15625 56.445312 L 38.261719 54.96875 C 38.273438 54.789062 38.429688 54.648438 38.613281 54.664062 C 38.796875 54.675781 38.933594 54.835938 38.917969 55.015625 Z M 38.816406 56.492188 " clip-rule="nonzero"/></clipPath><clipPath id="b8a013da1f"><path d="M 33 59 L 34 59 L 34 62 L 33 62 Z M 33 59 " clip-rule="nonzero"/></clipPath><clipPath id="4be0e3695e"><path d="M 34.003906 59.324219 L 33.851562 61.460938 L 33.195312 61.414062 L 33.34375 59.277344 Z M 34.003906 59.324219 " clip-rule="nonzero"/></clipPath><clipPath id="e4e577ebf9"><path d="M 33.875 61.132812 C 33.863281 61.3125 33.707031 61.449219 33.523438 61.4375 C 33.339844 61.425781 33.203125 61.265625 33.21875 61.085938 L 33.320312 59.605469 C 33.335938 59.425781 33.492188 59.289062 33.675781 59.300781 C 33.855469 59.3125 33.992188 59.472656 33.980469 59.652344 Z M 33.875 61.132812 " clip-rule="nonzero"/></clipPath><clipPath id="99e957fa9e"><path d="M 38 56 L 41 56 L 41 58 L 38 58 Z M 38 56 " clip-rule="nonzero"/></clipPath><clipPath id="828ebcccc7"><path d="M 40.125 57.746094 L 38.175781 56.859375 L 38.449219 56.257812 L 40.398438 57.144531 Z M 40.125 57.746094 " clip-rule="nonzero"/></clipPath><clipPath id="857b2a0a8c"><path d="M 38.476562 56.996094 C 38.308594 56.917969 38.238281 56.722656 38.3125 56.558594 C 38.386719 56.390625 38.582031 56.320312 38.75 56.394531 L 40.097656 57.007812 C 40.261719 57.082031 40.335938 57.28125 40.261719 57.445312 C 40.183594 57.613281 39.988281 57.683594 39.824219 57.609375 Z M 38.476562 56.996094 " clip-rule="nonzero"/></clipPath><clipPath id="060418b9f6"><path d="M 31 58 L 34 58 L 34 60 L 31 60 Z M 31 58 " clip-rule="nonzero"/></clipPath><clipPath id="3a90478e77"><path d="M 33.6875 59.84375 L 31.738281 58.953125 L 32.011719 58.351562 L 33.960938 59.242188 Z M 33.6875 59.84375 " clip-rule="nonzero"/></clipPath><clipPath id="275920a7b4"><path d="M 32.039062 59.089844 C 31.875 59.015625 31.800781 58.820312 31.875 58.652344 C 31.953125 58.488281 32.148438 58.414062 32.3125 58.492188 L 33.660156 59.105469 C 33.828125 59.179688 33.902344 59.375 33.824219 59.542969 C 33.75 59.707031 33.554688 59.78125 33.386719 59.707031 Z M 32.039062 59.089844 " clip-rule="nonzero"/></clipPath><clipPath id="77a7d7b2ed"><path d="M 31 55 L 41 55 L 41 61 L 31 61 Z M 31 55 " clip-rule="nonzero"/></clipPath><clipPath id="5dd9a76503"><path d="M 40.003906 60.578125 L 31.585938 55.886719 L 31.910156 55.308594 L 40.328125 60 Z M 40.003906 60.578125 " clip-rule="nonzero"/></clipPath><clipPath id="da0e466c63"><path d="M 31.875 56.046875 C 31.71875 55.957031 31.660156 55.757812 31.75 55.597656 C 31.839844 55.4375 32.039062 55.378906 32.199219 55.46875 L 40.039062 59.839844 C 40.199219 59.929688 40.253906 60.128906 40.167969 60.289062 C 40.078125 60.449219 39.875 60.507812 39.71875 60.417969 Z M 31.875 56.046875 " clip-rule="nonzero"/></clipPath><clipPath id="a0ced5b868"><path d="M 38 58 L 41 58 L 41 60 L 38 60 Z M 38 58 " clip-rule="nonzero"/></clipPath><clipPath id="efd8ce78e5"><path d="M 40.347656 58.75 L 38.425781 59.699219 L 38.132812 59.105469 L 40.054688 58.160156 Z M 40.347656 58.75 " clip-rule="nonzero"/></clipPath><clipPath id="3548e5d250"><path d="M 38.722656 59.550781 C 38.558594 59.632812 38.359375 59.5625 38.28125 59.402344 C 38.199219 59.238281 38.265625 59.039062 38.429688 58.957031 L 39.757812 58.304688 C 39.921875 58.222656 40.121094 58.292969 40.203125 58.457031 C 40.28125 58.621094 40.214844 58.816406 40.050781 58.898438 Z M 38.722656 59.550781 " clip-rule="nonzero"/></clipPath><clipPath id="4ea3943517"><path d="M 31 56 L 34 56 L 34 58 L 31 58 Z M 31 56 " clip-rule="nonzero"/></clipPath><clipPath id="c827d17bb8"><path d="M 33.851562 56.820312 L 31.929688 57.765625 L 31.640625 57.175781 L 33.5625 56.230469 Z M 33.851562 56.820312 " clip-rule="nonzero"/></clipPath><clipPath id="f5fcc2e9cb"><path d="M 32.226562 57.621094 C 32.066406 57.703125 31.867188 57.632812 31.785156 57.472656 C 31.707031 57.308594 31.773438 57.109375 31.9375 57.027344 L 33.265625 56.375 C 33.429688 56.292969 33.628906 56.363281 33.707031 56.527344 C 33.789062 56.6875 33.71875 56.886719 33.558594 56.96875 Z M 32.226562 57.621094 " clip-rule="nonzero"/></clipPath><clipPath id="219b651ee2"><path d="M 38 59 L 39 59 L 39 62 L 38 62 Z M 38 59 " clip-rule="nonzero"/></clipPath><clipPath id="cd749ec0ec"><path d="M 38.300781 61.3125 L 38.085938 59.183594 L 38.742188 59.117188 L 38.957031 61.246094 Z M 38.300781 61.3125 " clip-rule="nonzero"/></clipPath><clipPath id="23a677aad9"><path d="M 38.117188 59.511719 C 38.097656 59.328125 38.230469 59.167969 38.414062 59.148438 C 38.59375 59.132812 38.757812 59.265625 38.773438 59.445312 L 38.921875 60.917969 C 38.941406 61.101562 38.808594 61.261719 38.628906 61.28125 C 38.445312 61.296875 38.285156 61.167969 38.265625 60.984375 Z M 38.117188 59.511719 " clip-rule="nonzero"/></clipPath><clipPath id="f2855921bd"><path d="M 33 54 L 34 54 L 34 57 L 33 57 Z M 33 54 " clip-rule="nonzero"/></clipPath><clipPath id="d901f344dd"><path d="M 33.246094 56.808594 L 33.03125 54.679688 L 33.6875 54.613281 L 33.902344 56.742188 Z M 33.246094 56.808594 " clip-rule="nonzero"/></clipPath><clipPath id="cce1f2c1d2"><path d="M 33.066406 55.007812 C 33.046875 54.824219 33.179688 54.664062 33.359375 54.644531 C 33.542969 54.628906 33.703125 54.757812 33.722656 54.941406 L 33.871094 56.414062 C 33.890625 56.597656 33.757812 56.757812 33.574219 56.777344 C 33.394531 56.792969 33.230469 56.664062 33.214844 56.480469 Z M 33.066406 55.007812 " clip-rule="nonzero"/></clipPath><clipPath id="5332607197"><path d="M 35 53 L 37 53 L 37 63 L 35 63 Z M 35 53 " clip-rule="nonzero"/></clipPath><clipPath id="0f1e6ddc50"><path d="M 36.292969 53.25 L 36.433594 62.886719 L 35.773438 62.894531 L 35.632812 53.257812 Z M 36.292969 53.25 " clip-rule="nonzero"/></clipPath><clipPath id="3d09a36e81"><path d="M 36.429688 62.554688 C 36.433594 62.738281 36.285156 62.886719 36.105469 62.890625 C 35.921875 62.890625 35.769531 62.746094 35.769531 62.5625 L 35.636719 53.589844 C 35.636719 53.40625 35.78125 53.257812 35.964844 53.253906 C 36.144531 53.25 36.296875 53.398438 36.296875 53.578125 Z M 36.429688 62.554688 " clip-rule="nonzero"/></clipPath><clipPath id="636fd771ba"><path d="M 34 53 L 37 53 L 37 56 L 34 56 Z M 34 53 " clip-rule="nonzero"/></clipPath><clipPath id="16fd0d630a"><path d="M 34.542969 53.863281 L 36.320312 55.058594 L 35.953125 55.605469 L 34.171875 54.414062 Z M 34.542969 53.863281 " clip-rule="nonzero"/></clipPath><clipPath id="02406d2918"><path d="M 36.046875 54.875 C 36.199219 54.976562 36.238281 55.179688 36.136719 55.332031 C 36.035156 55.484375 35.828125 55.523438 35.679688 55.421875 L 34.449219 54.597656 C 34.296875 54.496094 34.257812 54.292969 34.359375 54.140625 C 34.460938 53.988281 34.664062 53.949219 34.816406 54.050781 Z M 36.046875 54.875 " clip-rule="nonzero"/></clipPath><clipPath id="6b5d707b6b"><path d="M 35 60 L 38 60 L 38 63 L 35 63 Z M 35 60 " clip-rule="nonzero"/></clipPath><clipPath id="81cdda42bb"><path d="M 36.113281 60.453125 L 37.894531 61.648438 L 37.527344 62.195312 L 35.746094 61.003906 Z M 36.113281 60.453125 " clip-rule="nonzero"/></clipPath><clipPath id="79084e8c5d"><path d="M 37.617188 61.464844 C 37.769531 61.566406 37.8125 61.769531 37.710938 61.921875 C 37.609375 62.074219 37.402344 62.113281 37.25 62.011719 L 36.019531 61.1875 C 35.871094 61.085938 35.828125 60.878906 35.929688 60.730469 C 36.03125 60.578125 36.238281 60.539062 36.390625 60.640625 Z M 37.617188 61.464844 " clip-rule="nonzero"/></clipPath><clipPath id="23e7d132e2"><path d="M 35 53 L 38 53 L 38 56 L 35 56 Z M 35 53 " clip-rule="nonzero"/></clipPath><clipPath id="76d28673c9"><path d="M 37.785156 54.359375 L 36.046875 55.609375 L 35.660156 55.074219 L 37.398438 53.824219 Z M 37.785156 54.359375 " clip-rule="nonzero"/></clipPath><clipPath id="22ac820115"><path d="M 36.3125 55.417969 C 36.164062 55.523438 35.960938 55.488281 35.851562 55.34375 C 35.746094 55.195312 35.78125 54.988281 35.929688 54.878906 L 37.128906 54.015625 C 37.277344 53.910156 37.484375 53.941406 37.589844 54.089844 C 37.699219 54.238281 37.664062 54.445312 37.515625 54.550781 Z M 36.3125 55.417969 " clip-rule="nonzero"/></clipPath><clipPath id="4bd5decef2"><path d="M 34 60 L 37 60 L 37 63 L 34 63 Z M 34 60 " clip-rule="nonzero"/></clipPath><clipPath id="1b7350bd41"><path d="M 36.40625 60.988281 L 34.667969 62.238281 L 34.28125 61.703125 L 36.019531 60.449219 Z M 36.40625 60.988281 " clip-rule="nonzero"/></clipPath><clipPath id="66b267acf6"><path d="M 34.9375 62.042969 C 34.789062 62.152344 34.582031 62.117188 34.476562 61.96875 C 34.367188 61.820312 34.402344 61.613281 34.550781 61.507812 L 35.753906 60.644531 C 35.902344 60.535156 36.105469 60.570312 36.214844 60.71875 C 36.320312 60.867188 36.285156 61.074219 36.136719 61.179688 Z M 34.9375 62.042969 " clip-rule="nonzero"/></clipPath><clipPath id="bc1c712b88"><path d="M 19 47 L 27 47 L 27 55 L 19 55 Z M 19 47 " clip-rule="nonzero"/></clipPath><clipPath id="9b3f717637"><path d="M 19.820312 54.613281 L 25.617188 46.914062 L 26.144531 47.3125 L 20.347656 55.011719 Z M 19.820312 54.613281 " clip-rule="nonzero"/></clipPath><clipPath id="d5a0d45a91"><path d="M 25.417969 47.179688 C 25.527344 47.035156 25.734375 47.003906 25.878906 47.113281 C 26.027344 47.222656 26.054688 47.429688 25.945312 47.578125 L 20.546875 54.746094 C 20.4375 54.894531 20.230469 54.921875 20.082031 54.8125 C 19.9375 54.703125 19.90625 54.496094 20.019531 54.351562 Z M 25.417969 47.179688 " clip-rule="nonzero"/></clipPath><clipPath id="236cf20a0a"><path d="M 20 53 L 23 53 L 23 56 L 20 56 Z M 20 53 " clip-rule="nonzero"/></clipPath><clipPath id="8578cc1595"><path d="M 21.582031 55.199219 L 20.90625 53.167969 L 21.535156 52.960938 L 22.210938 54.992188 Z M 21.582031 55.199219 " clip-rule="nonzero"/></clipPath><clipPath id="5f0a3da958"><path d="M 21.011719 53.480469 C 20.953125 53.308594 21.046875 53.121094 21.222656 53.0625 C 21.394531 53.007812 21.582031 53.101562 21.640625 53.273438 L 22.105469 54.679688 C 22.164062 54.851562 22.070312 55.039062 21.894531 55.097656 C 21.722656 55.152344 21.535156 55.058594 21.476562 54.886719 Z M 21.011719 53.480469 " clip-rule="nonzero"/></clipPath><clipPath id="b2ebfafa51"><path d="M 23 46 L 25 46 L 25 49 L 23 49 Z M 23 46 " clip-rule="nonzero"/></clipPath><clipPath id="25ad3c931e"><path d="M 24.378906 49.03125 L 23.707031 46.996094 L 24.332031 46.789062 L 25.007812 48.824219 Z M 24.378906 49.03125 " clip-rule="nonzero"/></clipPath><clipPath id="81855bf994"><path d="M 23.808594 47.3125 C 23.753906 47.136719 23.847656 46.953125 24.019531 46.894531 C 24.191406 46.835938 24.378906 46.929688 24.4375 47.105469 L 24.902344 48.507812 C 24.960938 48.683594 24.867188 48.871094 24.695312 48.925781 C 24.519531 48.984375 24.332031 48.890625 24.277344 48.71875 Z M 23.808594 47.3125 " clip-rule="nonzero"/></clipPath><clipPath id="2997497ccf"><path d="M 19 52 L 22 52 L 22 54 L 19 54 Z M 19 52 " clip-rule="nonzero"/></clipPath><clipPath id="5ddd9de189"><path d="M 19.324219 52.820312 L 21.464844 52.898438 L 21.441406 53.558594 L 19.300781 53.484375 Z M 19.324219 52.820312 " clip-rule="nonzero"/></clipPath><clipPath id="1e4c253d27"><path d="M 21.132812 52.886719 C 21.316406 52.894531 21.457031 53.046875 21.453125 53.230469 C 21.445312 53.414062 21.292969 53.554688 21.109375 53.546875 L 19.628906 53.496094 C 19.449219 53.488281 19.304688 53.335938 19.3125 53.152344 C 19.320312 52.96875 19.472656 52.828125 19.652344 52.835938 Z M 21.132812 52.886719 " clip-rule="nonzero"/></clipPath><clipPath id="2cf5a07027"><path d="M 24 48 L 27 48 L 27 50 L 24 50 Z M 24 48 " clip-rule="nonzero"/></clipPath><clipPath id="64b4b91fcc"><path d="M 24.476562 48.429688 L 26.617188 48.507812 L 26.589844 49.167969 L 24.449219 49.089844 Z M 24.476562 48.429688 " clip-rule="nonzero"/></clipPath><clipPath id="51d0732c71"><path d="M 26.285156 48.496094 C 26.46875 48.503906 26.609375 48.65625 26.601562 48.839844 C 26.597656 49.023438 26.441406 49.164062 26.261719 49.15625 L 24.78125 49.101562 C 24.597656 49.097656 24.457031 48.945312 24.464844 48.761719 C 24.46875 48.578125 24.621094 48.4375 24.804688 48.441406 Z M 26.285156 48.496094 " clip-rule="nonzero"/></clipPath><clipPath id="38ae88d8eb"><path d="M 18 50 L 28 50 L 28 52 L 18 52 Z M 18 50 " clip-rule="nonzero"/></clipPath><clipPath id="981b0120ac"><path d="M 18.351562 50.160156 L 27.921875 51.289062 L 27.847656 51.945312 L 18.277344 50.816406 Z M 18.351562 50.160156 " clip-rule="nonzero"/></clipPath><clipPath id="2b17c75121"><path d="M 27.59375 51.25 C 27.777344 51.273438 27.90625 51.4375 27.882812 51.617188 C 27.863281 51.796875 27.699219 51.929688 27.519531 51.90625 L 18.605469 50.855469 C 18.421875 50.832031 18.292969 50.667969 18.3125 50.488281 C 18.335938 50.304688 18.5 50.175781 18.679688 50.199219 Z M 27.59375 51.25 " clip-rule="nonzero"/></clipPath><clipPath id="59b0501ba3"><path d="M 18 50 L 21 50 L 21 53 L 18 53 Z M 18 50 " clip-rule="nonzero"/></clipPath><clipPath id="edf1f43d58"><path d="M 18.734375 51.976562 L 20.152344 50.371094 L 20.644531 50.808594 L 19.230469 52.414062 Z M 18.734375 51.976562 " clip-rule="nonzero"/></clipPath><clipPath id="d6098aeade"><path d="M 19.933594 50.621094 C 20.050781 50.480469 20.261719 50.46875 20.398438 50.589844 C 20.535156 50.710938 20.546875 50.917969 20.425781 51.054688 L 19.449219 52.167969 C 19.328125 52.304688 19.117188 52.316406 18.980469 52.195312 C 18.84375 52.074219 18.832031 51.867188 18.953125 51.730469 Z M 19.933594 50.621094 " clip-rule="nonzero"/></clipPath><clipPath id="7e97720a4c"><path d="M 25 49 L 28 49 L 28 52 L 25 52 Z M 25 49 " clip-rule="nonzero"/></clipPath><clipPath id="950484fec4"><path d="M 25.472656 51.285156 L 26.890625 49.679688 L 27.386719 50.117188 L 25.96875 51.722656 Z M 25.472656 51.285156 " clip-rule="nonzero"/></clipPath><clipPath id="ae06ba9921"><path d="M 26.671875 49.929688 C 26.792969 49.792969 27 49.777344 27.136719 49.898438 C 27.273438 50.019531 27.289062 50.226562 27.167969 50.363281 L 26.1875 51.476562 C 26.066406 51.613281 25.859375 51.625 25.722656 51.503906 C 25.585938 51.382812 25.570312 51.175781 25.691406 51.039062 Z M 26.671875 49.929688 " clip-rule="nonzero"/></clipPath><clipPath id="2bea195376"><path d="M 19 48 L 21 48 L 21 51 L 19 51 Z M 19 48 " clip-rule="nonzero"/></clipPath><clipPath id="465be94531"><path d="M 19.652344 48.828125 L 20.660156 50.71875 L 20.078125 51.027344 L 19.070312 49.140625 Z M 19.652344 48.828125 " clip-rule="nonzero"/></clipPath><clipPath id="c544a896ee"><path d="M 20.503906 50.425781 C 20.59375 50.585938 20.53125 50.785156 20.371094 50.871094 C 20.210938 50.957031 20.007812 50.898438 19.921875 50.738281 L 19.222656 49.433594 C 19.136719 49.269531 19.199219 49.070312 19.359375 48.984375 C 19.519531 48.898438 19.722656 48.960938 19.808594 49.121094 Z M 20.503906 50.425781 " clip-rule="nonzero"/></clipPath><clipPath id="ec3d0614e1"><path d="M 25 51 L 27 51 L 27 54 L 25 54 Z M 25 51 " clip-rule="nonzero"/></clipPath><clipPath id="dfd6eafb54"><path d="M 26.039062 51.066406 L 27.050781 52.957031 L 26.46875 53.265625 L 25.457031 51.378906 Z M 26.039062 51.066406 " clip-rule="nonzero"/></clipPath><clipPath id="1ac004249f"><path d="M 26.894531 52.664062 C 26.980469 52.824219 26.917969 53.023438 26.757812 53.109375 C 26.597656 53.195312 26.398438 53.136719 26.3125 52.976562 L 25.613281 51.671875 C 25.527344 51.507812 25.585938 51.308594 25.746094 51.222656 C 25.910156 51.136719 26.109375 51.199219 26.195312 51.359375 Z M 26.894531 52.664062 " clip-rule="nonzero"/></clipPath><clipPath id="bd4dab8b78"><path d="M 20 46 L 26 46 L 26 56 L 20 56 Z M 20 46 " clip-rule="nonzero"/></clipPath><clipPath id="b4f6c4b265"><path d="M 24.578125 55.519531 L 20.777344 46.664062 L 21.382812 46.40625 L 25.1875 55.261719 Z M 24.578125 55.519531 " clip-rule="nonzero"/></clipPath><clipPath id="98d095f950"><path d="M 20.90625 46.96875 C 20.835938 46.800781 20.910156 46.609375 21.078125 46.535156 C 21.246094 46.464844 21.441406 46.542969 21.511719 46.707031 L 25.054688 54.957031 C 25.128906 55.125 25.050781 55.320312 24.882812 55.390625 C 24.714844 55.460938 24.519531 55.386719 24.449219 55.21875 Z M 20.90625 46.96875 " clip-rule="nonzero"/></clipPath><clipPath id="0109d1af50"><path d="M 23 53 L 27 53 L 27 55 L 23 55 Z M 23 53 " clip-rule="nonzero"/></clipPath><clipPath id="ab0df9b0b7"><path d="M 25.964844 54.28125 L 23.863281 53.859375 L 23.996094 53.210938 L 26.09375 53.636719 Z M 25.964844 54.28125 " clip-rule="nonzero"/></clipPath><clipPath id="57100d8b2b"><path d="M 24.1875 53.921875 C 24.011719 53.886719 23.894531 53.714844 23.929688 53.535156 C 23.964844 53.355469 24.140625 53.238281 24.320312 53.277344 L 25.769531 53.570312 C 25.949219 53.605469 26.066406 53.78125 26.03125 53.957031 C 25.992188 54.136719 25.820312 54.253906 25.640625 54.21875 Z M 24.1875 53.921875 " clip-rule="nonzero"/></clipPath><clipPath id="7e3a03eeb6"><path d="M 19 47 L 23 47 L 23 49 L 19 49 Z M 19 47 " clip-rule="nonzero"/></clipPath><clipPath id="0c01dcb138"><path d="M 22 48.789062 L 19.898438 48.367188 L 20.03125 47.71875 L 22.128906 48.140625 Z M 22 48.789062 " clip-rule="nonzero"/></clipPath><clipPath id="a5c53200dd"><path d="M 20.222656 48.429688 C 20.042969 48.394531 19.929688 48.21875 19.964844 48.042969 C 20 47.863281 20.175781 47.746094 20.355469 47.785156 L 21.804688 48.078125 C 21.984375 48.113281 22.101562 48.289062 22.0625 48.464844 C 22.027344 48.644531 21.851562 48.761719 21.675781 48.722656 Z M 20.222656 48.429688 " clip-rule="nonzero"/></clipPath><clipPath id="3a17013e91"><path d="M 22 53 L 25 53 L 25 56 L 22 56 Z M 22 53 " clip-rule="nonzero"/></clipPath><clipPath id="fe7e50fe5d"><path d="M 22.777344 55.0625 L 23.910156 53.242188 L 24.46875 53.589844 L 23.339844 55.410156 Z M 22.777344 55.0625 " clip-rule="nonzero"/></clipPath><clipPath id="f700e7bf34"><path d="M 23.734375 53.523438 C 23.832031 53.367188 24.035156 53.320312 24.1875 53.417969 C 24.34375 53.511719 24.390625 53.71875 24.296875 53.871094 L 23.511719 55.128906 C 23.417969 55.285156 23.214844 55.332031 23.058594 55.234375 C 22.902344 55.140625 22.855469 54.9375 22.953125 54.78125 Z M 23.734375 53.523438 " clip-rule="nonzero"/></clipPath><clipPath id="a958ce9617"><path d="M 21 46 L 24 46 L 24 49 L 21 49 Z M 21 46 " clip-rule="nonzero"/></clipPath><clipPath id="9fed30e001"><path d="M 21.523438 48.410156 L 22.65625 46.589844 L 23.21875 46.9375 L 22.085938 48.757812 Z M 21.523438 48.410156 " clip-rule="nonzero"/></clipPath><clipPath id="3003834612"><path d="M 22.480469 46.871094 C 22.578125 46.714844 22.78125 46.667969 22.9375 46.765625 C 23.089844 46.863281 23.140625 47.066406 23.042969 47.21875 L 22.261719 48.476562 C 22.164062 48.632812 21.960938 48.679688 21.804688 48.582031 C 21.652344 48.488281 21.601562 48.285156 21.699219 48.128906 Z M 22.480469 46.871094 " clip-rule="nonzero"/></clipPath></defs><g clip-path="url(#d9eae0803d)"><g clip-path="url(#2ffcf96281)"><g clip-path="url(#aaf759db56)"><path fill="#3bc9eb" d="M 48.316406 53.027344 L 44.914062 43.949219 L 45.539062 43.71875 L 48.9375 52.792969 Z M 48.316406 53.027344 " fill-opacity="1" fill-rule="nonzero"/></g></g></g><g clip-path="url(#56524a0dc7)"><g clip-path="url(#6887fb243e)"><g clip-path="url(#effb741c20)"><path fill="#3bc9eb" d="M 49.765625 51.855469 L 47.679688 51.332031 L 47.84375 50.679688 L 49.929688 51.203125 Z M 49.765625 51.855469 " fill-opacity="1" fill-rule="nonzero"/></g></g></g><g clip-path="url(#4662c3d75f)"><g clip-path="url(#6bf45cc0aa)"><g clip-path="url(#aa41e68173)"><path fill="#3bc9eb" d="M 46.042969 46.152344 L 43.953125 45.625 L 44.117188 44.972656 L 46.207031 45.496094 Z M 46.042969 46.152344 " fill-opacity="1" fill-rule="nonzero"/></g></g></g><g clip-path="url(#5059fbc6c8)"><g clip-path="url(#65ce9fe667)"><g clip-path="url(#3111c8dac6)"><path fill="#3bc9eb" d="M 46.527344 52.480469 L 47.746094 50.707031 L 48.300781 51.089844 L 47.082031 52.863281 Z M 46.527344 52.480469 " fill-opacity="1" fill-rule="nonzero"/></g></g></g><g clip-path="url(#c6ccad5c7b)"><g clip-path="url(#a38da3bebd)"><g clip-path="url(#08bac7c800)"><path fill="#3bc9eb" d="M 45.582031 45.738281 L 46.804688 43.964844 L 47.359375 44.347656 L 46.136719 46.121094 Z M 45.582031 45.738281 " fill-opacity="1" fill-rule="nonzero"/></g></g></g><g clip-path="url(#6e10744340)"><g clip-path="url(#6e8ab2ac7f)"><g clip-path="url(#6a9a3d4bdd)"><path fill="#3bc9eb" d="M 43.742188 51.867188 L 49.867188 44.359375 L 50.390625 44.78125 L 44.265625 52.292969 Z M 43.742188 51.867188 " fill-opacity="1" fill-rule="nonzero"/></g></g></g><g clip-path="url(#d79ff93d63)"><g clip-path="url(#520ecd7e1a)"><g clip-path="url(#aef0f2f11c)"><path fill="#3bc9eb" d="M 45.492188 52.523438 L 44.894531 50.453125 L 45.535156 50.269531 L 46.132812 52.339844 Z M 45.492188 52.523438 " fill-opacity="1" fill-rule="nonzero"/></g></g></g><g clip-path="url(#554aa8a886)"><g clip-path="url(#211baa65f9)"><g clip-path="url(#08b3ec47f4)"><path fill="#3bc9eb" d="M 48.546875 46.433594 L 47.949219 44.363281 L 48.585938 44.179688 L 49.183594 46.246094 Z M 48.546875 46.433594 " fill-opacity="1" fill-rule="nonzero"/></g></g></g><g clip-path="url(#b8b8e4cff1)"><g clip-path="url(#5b6585ecb1)"><g clip-path="url(#a9c4ef1bd0)"><path fill="#3bc9eb" d="M 43.316406 50.046875 L 45.464844 50.207031 L 45.414062 50.878906 L 43.269531 50.714844 Z M 43.316406 50.046875 " fill-opacity="1" fill-rule="nonzero"/></g></g></g><g clip-path="url(#fb0770c348)"><g clip-path="url(#5b225b276b)"><g clip-path="url(#85669e4c8d)"><path fill="#3bc9eb" d="M 48.667969 45.832031 L 50.8125 45.996094 L 50.761719 46.667969 L 48.617188 46.503906 Z M 48.667969 45.832031 " fill-opacity="1" fill-rule="nonzero"/></g></g></g><g clip-path="url(#49e3162143)"><g clip-path="url(#5816d08c64)"><g clip-path="url(#434e828ee1)"><path fill="#3bc9eb" d="M 51.65625 49.484375 L 42.089844 47.929688 L 42.199219 47.265625 L 51.765625 48.820312 Z M 51.65625 49.484375 " fill-opacity="1" fill-rule="nonzero"/></g></g></g><g clip-path="url(#f24bf88bd1)"><g clip-path="url(#e820264897)"><g clip-path="url(#7c422e4e7c)"><path fill="#3bc9eb" d="M 51.359375 47.640625 L 49.863281 49.191406 L 49.378906 48.726562 L 50.871094 47.175781 Z M 51.359375 47.640625 " fill-opacity="1" fill-rule="nonzero"/></g></g></g><g clip-path="url(#48a0b40f31)"><g clip-path="url(#1ee25b7665)"><g clip-path="url(#91e4584aab)"><path fill="#3bc9eb" d="M 44.554688 48.039062 L 43.0625 49.589844 L 42.578125 49.125 L 44.070312 47.574219 Z M 44.554688 48.039062 " fill-opacity="1" fill-rule="nonzero"/></g></g></g><g clip-path="url(#203e82f275)"><g clip-path="url(#37cea051aa)"><g clip-path="url(#77c9b714d7)"><path fill="#3bc9eb" d="M 50.292969 50.757812 L 49.359375 48.816406 L 49.960938 48.527344 L 50.894531 50.46875 Z M 50.292969 50.757812 " fill-opacity="1" fill-rule="nonzero"/></g></g></g><g clip-path="url(#96c64bec01)"><g clip-path="url(#993b49fa3d)"><g clip-path="url(#778cf7724b)"><path fill="#3bc9eb" d="M 43.972656 48.226562 L 43.039062 46.285156 L 43.640625 46 L 44.574219 47.941406 Z M 43.972656 48.226562 " fill-opacity="1" fill-rule="nonzero"/></g></g></g><g clip-path="url(#2c0f0ac962)"><g clip-path="url(#6bc90d535e)"><path fill="#c7c7c7" d="M 64.25 15.382812 L 64.25 43 L 35.011719 43 L 35.011719 15.382812 Z M 64.25 15.382812 " fill-opacity="1" fill-rule="nonzero"/></g></g><g clip-path="url(#33183053a6)"><g clip-path="url(#2d438b8201)"><path fill="#c7c7c7" d="M 7.75 43 L 7.75 21.46875 L 29.453125 21.46875 L 29.453125 43 Z M 7.75 43 " fill-opacity="1" fill-rule="nonzero"/></g></g><g clip-path="url(#85f8be2575)"><g clip-path="url(#e053e7f108)"><path fill="#c7c7c7" d="M 16.242188 4.738281 L 50.007812 4.738281 L 50.007812 34.753906 L 16.242188 34.753906 Z M 16.242188 4.738281 " fill-opacity="1" fill-rule="nonzero"/></g></g><g clip-path="url(#4c57186aed)"><path fill="#c7c7c7" d="M 23.679688 24.132812 L 42.550781 24.132812 L 42.550781 43 L 23.679688 43 Z M 23.679688 24.132812 " fill-opacity="1" fill-rule="nonzero"/></g><g clip-path="url(#6985cad661)"><g clip-path="url(#c9771f3b07)"><g clip-path="url(#ab43d90bbb)"><path fill="#3bc9eb" d="M 40.347656 55.902344 L 32.054688 60.808594 L 31.71875 60.242188 L 40.011719 55.332031 Z M 40.347656 55.902344 " fill-opacity="1" fill-rule="nonzero"/></g></g></g><g clip-path="url(#e094189adb)"><g clip-path="url(#b5845244fb)"><g clip-path="url(#b4e34953e9)"><path fill="#3bc9eb" d="M 38.941406 54.6875 L 38.792969 56.824219 L 38.132812 56.777344 L 38.285156 54.640625 Z M 38.941406 54.6875 " fill-opacity="1" fill-rule="nonzero"/></g></g></g><g clip-path="url(#b8a013da1f)"><g clip-path="url(#4be0e3695e)"><g clip-path="url(#e4e577ebf9)"><path fill="#3bc9eb" d="M 34.003906 59.324219 L 33.851562 61.460938 L 33.195312 61.414062 L 33.34375 59.277344 Z M 34.003906 59.324219 " fill-opacity="1" fill-rule="nonzero"/></g></g></g><g clip-path="url(#99e957fa9e)"><g clip-path="url(#828ebcccc7)"><g clip-path="url(#857b2a0a8c)"><path fill="#3bc9eb" d="M 40.125 57.746094 L 38.175781 56.859375 L 38.449219 56.257812 L 40.398438 57.144531 Z M 40.125 57.746094 " fill-opacity="1" fill-rule="nonzero"/></g></g></g><g clip-path="url(#060418b9f6)"><g clip-path="url(#3a90478e77)"><g clip-path="url(#275920a7b4)"><path fill="#3bc9eb" d="M 33.6875 59.84375 L 31.738281 58.953125 L 32.011719 58.351562 L 33.960938 59.242188 Z M 33.6875 59.84375 " fill-opacity="1" fill-rule="nonzero"/></g></g></g><g clip-path="url(#77a7d7b2ed)"><g clip-path="url(#5dd9a76503)"><g clip-path="url(#da0e466c63)"><path fill="#3bc9eb" d="M 40.003906 60.578125 L 31.585938 55.886719 L 31.910156 55.308594 L 40.328125 60 Z M 40.003906 60.578125 " fill-opacity="1" fill-rule="nonzero"/></g></g></g><g clip-path="url(#a0ced5b868)"><g clip-path="url(#efd8ce78e5)"><g clip-path="url(#3548e5d250)"><path fill="#3bc9eb" d="M 40.347656 58.75 L 38.425781 59.699219 L 38.132812 59.105469 L 40.054688 58.160156 Z M 40.347656 58.75 " fill-opacity="1" fill-rule="nonzero"/></g></g></g><g clip-path="url(#4ea3943517)"><g clip-path="url(#c827d17bb8)"><g clip-path="url(#f5fcc2e9cb)"><path fill="#3bc9eb" d="M 33.851562 56.820312 L 31.929688 57.765625 L 31.640625 57.175781 L 33.5625 56.230469 Z M 33.851562 56.820312 " fill-opacity="1" fill-rule="nonzero"/></g></g></g><g clip-path="url(#219b651ee2)"><g clip-path="url(#cd749ec0ec)"><g clip-path="url(#23a677aad9)"><path fill="#3bc9eb" d="M 38.300781 61.3125 L 38.085938 59.183594 L 38.742188 59.117188 L 38.957031 61.246094 Z M 38.300781 61.3125 " fill-opacity="1" fill-rule="nonzero"/></g></g></g><g clip-path="url(#f2855921bd)"><g clip-path="url(#d901f344dd)"><g clip-path="url(#cce1f2c1d2)"><path fill="#3bc9eb" d="M 33.246094 56.808594 L 33.03125 54.679688 L 33.6875 54.613281 L 33.902344 56.742188 Z M 33.246094 56.808594 " fill-opacity="1" fill-rule="nonzero"/></g></g></g><g clip-path="url(#5332607197)"><g clip-path="url(#0f1e6ddc50)"><g clip-path="url(#3d09a36e81)"><path fill="#3bc9eb" d="M 36.292969 53.25 L 36.433594 62.886719 L 35.773438 62.894531 L 35.632812 53.257812 Z M 36.292969 53.25 " fill-opacity="1" fill-rule="nonzero"/></g></g></g><g clip-path="url(#636fd771ba)"><g clip-path="url(#16fd0d630a)"><g clip-path="url(#02406d2918)"><path fill="#3bc9eb" d="M 34.542969 53.863281 L 36.320312 55.058594 L 35.953125 55.605469 L 34.171875 54.414062 Z M 34.542969 53.863281 " fill-opacity="1" fill-rule="nonzero"/></g></g></g><g clip-path="url(#6b5d707b6b)"><g clip-path="url(#81cdda42bb)"><g clip-path="url(#79084e8c5d)"><path fill="#3bc9eb" d="M 36.113281 60.453125 L 37.894531 61.648438 L 37.527344 62.195312 L 35.746094 61.003906 Z M 36.113281 60.453125 " fill-opacity="1" fill-rule="nonzero"/></g></g></g><g clip-path="url(#23e7d132e2)"><g clip-path="url(#76d28673c9)"><g clip-path="url(#22ac820115)"><path fill="#3bc9eb" d="M 37.785156 54.359375 L 36.046875 55.609375 L 35.660156 55.074219 L 37.398438 53.824219 Z M 37.785156 54.359375 " fill-opacity="1" fill-rule="nonzero"/></g></g></g><g clip-path="url(#4bd5decef2)"><g clip-path="url(#1b7350bd41)"><g clip-path="url(#66b267acf6)"><path fill="#3bc9eb" d="M 36.40625 60.988281 L 34.667969 62.238281 L 34.28125 61.703125 L 36.019531 60.449219 Z M 36.40625 60.988281 " fill-opacity="1" fill-rule="nonzero"/></g></g></g><g clip-path="url(#bc1c712b88)"><g clip-path="url(#9b3f717637)"><g clip-path="url(#d5a0d45a91)"><path fill="#3bc9eb" d="M 19.820312 54.613281 L 25.617188 46.914062 L 26.144531 47.3125 L 20.347656 55.011719 Z M 19.820312 54.613281 " fill-opacity="1" fill-rule="nonzero"/></g></g></g><g clip-path="url(#236cf20a0a)"><g clip-path="url(#8578cc1595)"><g clip-path="url(#5f0a3da958)"><path fill="#3bc9eb" d="M 21.582031 55.199219 L 20.90625 53.167969 L 21.535156 52.960938 L 22.210938 54.992188 Z M 21.582031 55.199219 " fill-opacity="1" fill-rule="nonzero"/></g></g></g><g clip-path="url(#b2ebfafa51)"><g clip-path="url(#25ad3c931e)"><g clip-path="url(#81855bf994)"><path fill="#3bc9eb" d="M 24.378906 49.03125 L 23.707031 46.996094 L 24.332031 46.789062 L 25.007812 48.824219 Z M 24.378906 49.03125 " fill-opacity="1" fill-rule="nonzero"/></g></g></g><g clip-path="url(#2997497ccf)"><g clip-path="url(#5ddd9de189)"><g clip-path="url(#1e4c253d27)"><path fill="#3bc9eb" d="M 19.324219 52.820312 L 21.464844 52.898438 L 21.441406 53.558594 L 19.300781 53.484375 Z M 19.324219 52.820312 " fill-opacity="1" fill-rule="nonzero"/></g></g></g><g clip-path="url(#2cf5a07027)"><g clip-path="url(#64b4b91fcc)"><g clip-path="url(#51d0732c71)"><path fill="#3bc9eb" d="M 24.476562 48.429688 L 26.617188 48.507812 L 26.589844 49.167969 L 24.449219 49.089844 Z M 24.476562 48.429688 " fill-opacity="1" fill-rule="nonzero"/></g></g></g><g clip-path="url(#38ae88d8eb)"><g clip-path="url(#981b0120ac)"><g clip-path="url(#2b17c75121)"><path fill="#3bc9eb" d="M 18.351562 50.160156 L 27.921875 51.289062 L 27.847656 51.945312 L 18.277344 50.816406 Z M 18.351562 50.160156 " fill-opacity="1" fill-rule="nonzero"/></g></g></g><g clip-path="url(#59b0501ba3)"><g clip-path="url(#edf1f43d58)"><g clip-path="url(#d6098aeade)"><path fill="#3bc9eb" d="M 18.734375 51.976562 L 20.152344 50.371094 L 20.644531 50.808594 L 19.230469 52.414062 Z M 18.734375 51.976562 " fill-opacity="1" fill-rule="nonzero"/></g></g></g><g clip-path="url(#7e97720a4c)"><g clip-path="url(#950484fec4)"><g clip-path="url(#ae06ba9921)"><path fill="#3bc9eb" d="M 25.472656 51.285156 L 26.890625 49.679688 L 27.386719 50.117188 L 25.96875 51.722656 Z M 25.472656 51.285156 " fill-opacity="1" fill-rule="nonzero"/></g></g></g><g clip-path="url(#2bea195376)"><g clip-path="url(#465be94531)"><g clip-path="url(#c544a896ee)"><path fill="#3bc9eb" d="M 19.652344 48.828125 L 20.660156 50.71875 L 20.078125 51.027344 L 19.070312 49.140625 Z M 19.652344 48.828125 " fill-opacity="1" fill-rule="nonzero"/></g></g></g><g clip-path="url(#ec3d0614e1)"><g clip-path="url(#dfd6eafb54)"><g clip-path="url(#1ac004249f)"><path fill="#3bc9eb" d="M 26.039062 51.066406 L 27.050781 52.957031 L 26.46875 53.265625 L 25.457031 51.378906 Z M 26.039062 51.066406 " fill-opacity="1" fill-rule="nonzero"/></g></g></g><g clip-path="url(#bd4dab8b78)"><g clip-path="url(#b4f6c4b265)"><g clip-path="url(#98d095f950)"><path fill="#3bc9eb" d="M 24.578125 55.519531 L 20.777344 46.664062 L 21.382812 46.40625 L 25.1875 55.261719 Z M 24.578125 55.519531 " fill-opacity="1" fill-rule="nonzero"/></g></g></g><g clip-path="url(#0109d1af50)"><g clip-path="url(#ab0df9b0b7)"><g clip-path="url(#57100d8b2b)"><path fill="#3bc9eb" d="M 25.964844 54.28125 L 23.863281 53.859375 L 23.996094 53.210938 L 26.09375 53.636719 Z M 25.964844 54.28125 " fill-opacity="1" fill-rule="nonzero"/></g></g></g><g clip-path="url(#7e3a03eeb6)"><g clip-path="url(#0c01dcb138)"><g clip-path="url(#a5c53200dd)"><path fill="#3bc9eb" d="M 22 48.789062 L 19.898438 48.367188 L 20.03125 47.71875 L 22.128906 48.140625 Z M 22 48.789062 " fill-opacity="1" fill-rule="nonzero"/></g></g></g><g clip-path="url(#3a17013e91)"><g clip-path="url(#fe7e50fe5d)"><g clip-path="url(#f700e7bf34)"><path fill="#3bc9eb" d="M 22.777344 55.0625 L 23.910156 53.242188 L 24.46875 53.589844 L 23.339844 55.410156 Z M 22.777344 55.0625 " fill-opacity="1" fill-rule="nonzero"/></g></g></g><g clip-path="url(#a958ce9617)"><g clip-path="url(#9fed30e001)"><g clip-path="url(#3003834612)"><path fill="#3bc9eb" d="M 21.523438 48.410156 L 22.65625 46.589844 L 23.21875 46.9375 L 22.085938 48.757812 Z M 21.523438 48.410156 " fill-opacity="1" fill-rule="nonzero"/></g></g></g></svg>