<svg xmlns="http://www.w3.org/2000/svg" xmlns:xlink="http://www.w3.org/1999/xlink" width="96" zoomAndPan="magnify" viewBox="0 0 72 67.499998" height="90" preserveAspectRatio="xMidYMid meet" version="1.0"><defs><clipPath id="e28f5f6209"><path d="M 5.84375 26.820312 L 15.761719 26.820312 L 15.761719 38.710938 L 5.84375 38.710938 Z M 5.84375 26.820312 " clip-rule="nonzero"/></clipPath><clipPath id="fe9d061496"><path d="M 6.136719 34.746094 C 5.960938 34.140625 5.84375 33.445312 5.84375 32.765625 C 5.84375 32.085938 5.945312 31.433594 6.121094 30.832031 C 6.125 30.816406 6.125 30.804688 6.132812 30.792969 C 6.839844 28.53125 8.710938 26.863281 10.839844 26.832031 L 15.761719 26.832031 L 15.761719 38.710938 L 10.84375 38.710938 C 8.699219 38.679688 6.828125 37.035156 6.136719 34.746094 Z M 6.136719 34.746094 " clip-rule="nonzero"/></clipPath><clipPath id="9864362352"><path d="M 17.609375 26.585938 L 27.558594 26.585938 L 27.558594 38.75 L 17.609375 38.75 Z M 17.609375 26.585938 " clip-rule="nonzero"/></clipPath><clipPath id="53ff900d10"><path d="M 27.257812 30.632812 C 27.441406 31.25 27.558594 31.960938 27.558594 32.65625 C 27.558594 33.347656 27.457031 34.015625 27.273438 34.632812 C 27.269531 34.644531 27.269531 34.65625 27.261719 34.671875 C 26.535156 36.980469 24.613281 38.683594 22.433594 38.714844 L 17.609375 38.714844 L 17.609375 26.585938 L 22.429688 26.585938 C 24.625 26.621094 26.546875 28.296875 27.257812 30.632812 Z M 27.257812 30.632812 " clip-rule="nonzero"/></clipPath><clipPath id="b82d0f91a8"><path d="M 7 22 L 23 22 L 23 38 L 7 38 Z M 7 22 " clip-rule="nonzero"/></clipPath><clipPath id="1f39924074"><path d="M 12.027344 20.730469 L 23.703125 24.546875 L 19.484375 37.449219 L 7.8125 33.636719 Z M 12.027344 20.730469 " clip-rule="nonzero"/></clipPath><clipPath id="da96d33004"><path d="M 15.832031 22.28125 C 16.484375 22.308594 17.199219 22.421875 17.867188 22.640625 C 18.535156 22.855469 19.148438 23.160156 19.683594 23.523438 C 19.695312 23.535156 19.707031 23.539062 19.71875 23.546875 C 21.722656 24.945312 22.78125 27.261719 22.125 29.371094 L 19.488281 37.445312 L 7.8125 33.628906 L 10.449219 25.5625 C 11.171875 23.453125 13.367188 22.203125 15.832031 22.28125 Z M 15.832031 22.28125 " clip-rule="nonzero"/></clipPath><clipPath id="2f627a6252"><path d="M 17.566406 41.632812 L 37.113281 41.632812 L 37.113281 59.007812 L 17.566406 59.007812 Z M 17.566406 41.632812 " clip-rule="nonzero"/></clipPath><clipPath id="6a382c7f3d"><path d="M 18.078125 47.429688 C 17.792969 48.320312 17.609375 49.332031 17.609375 50.328125 C 17.609375 51.320312 17.769531 52.277344 18.050781 53.15625 C 18.0625 53.175781 18.0625 53.195312 18.070312 53.214844 C 19.210938 56.523438 22.214844 58.960938 25.71875 59.007812 L 37.113281 59.007812 L 37.113281 41.632812 L 25.726562 41.632812 C 22.199219 41.679688 19.191406 44.082031 18.078125 47.429688 Z M 18.078125 47.429688 " clip-rule="nonzero"/></clipPath><clipPath id="63d682b62f"><path d="M 26 33 L 49 33 L 49 55 L 26 55 Z M 26 33 " clip-rule="nonzero"/></clipPath><clipPath id="afc4b04398"><path d="M 48.335938 38.90625 L 41.078125 54.691406 L 23.320312 46.527344 L 30.578125 30.742188 Z M 48.335938 38.90625 " clip-rule="nonzero"/></clipPath><clipPath id="857efedc09"><path d="M 28.621094 36.21875 C 27.992188 36.910156 27.398438 37.753906 26.984375 38.65625 C 26.570312 39.558594 26.3125 40.492188 26.203125 41.414062 C 26.203125 41.433594 26.195312 41.453125 26.199219 41.472656 C 25.847656 44.957031 27.5625 48.425781 30.726562 49.933594 L 41.078125 54.691406 L 48.335938 38.90625 L 37.992188 34.152344 C 34.765625 32.71875 31.03125 33.644531 28.621094 36.21875 Z M 28.621094 36.21875 " clip-rule="nonzero"/></clipPath><clipPath id="73c92a0dc6"><path d="M 36.039062 39.304688 L 66.210938 39.304688 L 66.210938 59.007812 L 36.039062 59.007812 Z M 36.039062 39.304688 " clip-rule="nonzero"/></clipPath><clipPath id="86b7d034a8"><path d="M 65.6875 52.4375 C 65.96875 51.425781 66.15625 50.277344 66.15625 49.152344 C 66.15625 48.023438 65.996094 46.9375 65.710938 45.9375 C 65.703125 45.917969 65.703125 45.898438 65.695312 45.875 C 64.554688 42.121094 61.546875 39.355469 57.8125 39.304688 L 36.039062 39.304688 L 36.039062 59.007812 L 57.792969 59.007812 C 61.566406 58.957031 64.574219 56.234375 65.6875 52.4375 Z M 65.6875 52.4375 " clip-rule="nonzero"/></clipPath><clipPath id="3c92394b3e"><path d="M 37.109375 29.53125 L 57.792969 29.53125 L 57.792969 45.335938 L 37.109375 45.335938 Z M 37.109375 29.53125 " clip-rule="nonzero"/></clipPath><clipPath id="a8c323b6f7"><path d="M 50.898438 30.003906 C 49.835938 29.71875 48.632812 29.53125 47.449219 29.53125 C 46.265625 29.53125 45.128906 29.691406 44.082031 29.976562 C 44.058594 29.984375 44.035156 29.984375 44.015625 29.992188 C 40.074219 31.132812 37.175781 34.140625 37.117188 37.558594 L 37.117188 45.335938 L 57.792969 45.335938 L 57.792969 37.566406 C 57.738281 34.121094 54.878906 31.113281 50.898438 30.003906 Z M 50.898438 30.003906 " clip-rule="nonzero"/></clipPath><clipPath id="38d1155eaf"><path d="M 13.898438 34.992188 L 17.621094 34.992188 L 17.621094 38.714844 L 13.898438 38.714844 Z M 13.898438 34.992188 " clip-rule="nonzero"/></clipPath><clipPath id="35b1b94a45"><path d="M 45.511719 13.351562 L 60.230469 13.351562 L 60.230469 27.253906 L 45.511719 27.253906 Z M 45.511719 13.351562 " clip-rule="nonzero"/></clipPath><clipPath id="0a4f5c3318"><path d="M 59.828125 17.988281 C 60.074219 18.699219 60.230469 19.511719 60.230469 20.308594 C 60.230469 21.101562 60.09375 21.867188 59.851562 22.574219 C 59.84375 22.589844 59.84375 22.605469 59.835938 22.617188 C 58.867188 25.265625 56.308594 27.21875 53.367188 27.253906 L 45.515625 27.253906 L 45.515625 13.351562 L 53.363281 13.351562 C 56.324219 13.390625 58.882812 15.308594 59.828125 17.988281 Z M 59.828125 17.988281 " clip-rule="nonzero"/></clipPath><clipPath id="35fadbc62a"><path d="M 31.789062 16.40625 L 42.757812 16.40625 L 42.757812 27.246094 L 31.789062 27.246094 Z M 31.789062 16.40625 " clip-rule="nonzero"/></clipPath><clipPath id="bce5e9b16c"><path d="M 32.101562 23.628906 C 31.914062 23.074219 31.789062 22.441406 31.789062 21.820312 C 31.789062 21.203125 31.894531 20.605469 32.085938 20.054688 C 32.089844 20.042969 32.089844 20.03125 32.097656 20.019531 C 32.851562 17.953125 34.847656 16.433594 37.128906 16.40625 L 42.734375 16.40625 L 42.734375 27.246094 L 37.132812 27.246094 C 34.835938 27.214844 32.839844 25.71875 32.101562 23.628906 Z M 32.101562 23.628906 " clip-rule="nonzero"/></clipPath><clipPath id="f790572c48"><path d="M 36.066406 7.992188 L 53.0625 7.992188 L 53.0625 23.105469 L 36.066406 23.105469 Z M 36.066406 7.992188 " clip-rule="nonzero"/></clipPath><clipPath id="8ba764b541"><path d="M 41.730469 8.484375 C 42.597656 8.1875 43.589844 7.992188 44.5625 7.992188 C 45.535156 7.992188 46.46875 8.160156 47.332031 8.457031 C 47.351562 8.464844 47.367188 8.464844 47.386719 8.476562 C 50.625 9.660156 53.007812 12.789062 53.054688 16.316406 L 53.054688 23.105469 L 36.066406 23.105469 L 36.066406 16.320312 C 36.109375 12.769531 38.457031 9.640625 41.730469 8.484375 Z M 41.730469 8.484375 " clip-rule="nonzero"/></clipPath><clipPath id="e1d6975feb"><path d="M 39.808594 17.757812 L 49.308594 17.757812 L 49.308594 27.253906 L 39.808594 27.253906 Z M 39.808594 17.757812 " clip-rule="nonzero"/></clipPath></defs><g clip-path="url(#e28f5f6209)"><g clip-path="url(#fe9d061496)"><path fill="#c7c7c7" d="M 5.84375 38.710938 L 5.84375 26.820312 L 15.761719 26.820312 L 15.761719 38.710938 Z M 5.84375 38.710938 " fill-opacity="1" fill-rule="nonzero"/></g></g><g clip-path="url(#9864362352)"><g clip-path="url(#53ff900d10)"><path fill="#c7c7c7" d="M 27.558594 26.585938 L 27.558594 38.710938 L 17.609375 38.710938 L 17.609375 26.585938 Z M 27.558594 26.585938 " fill-opacity="1" fill-rule="nonzero"/></g></g><g clip-path="url(#b82d0f91a8)"><g clip-path="url(#1f39924074)"><g clip-path="url(#da96d33004)"><path fill="#c7c7c7" d="M 12.027344 20.730469 L 23.703125 24.546875 L 19.484375 37.449219 L 7.8125 33.636719 Z M 12.027344 20.730469 " fill-opacity="1" fill-rule="nonzero"/></g></g></g><g clip-path="url(#2f627a6252)"><g clip-path="url(#6a382c7f3d)"><path fill="#c7c7c7" d="M 37.113281 41.632812 L 37.113281 59.007812 L 17.632812 59.007812 L 17.632812 41.632812 Z M 37.113281 41.632812 " fill-opacity="1" fill-rule="nonzero"/></g></g><g clip-path="url(#63d682b62f)"><g clip-path="url(#afc4b04398)"><g clip-path="url(#857efedc09)"><path fill="#c7c7c7" d="M 48.335938 38.90625 L 41.078125 54.691406 L 23.378906 46.554688 L 30.640625 30.769531 Z M 48.335938 38.90625 " fill-opacity="1" fill-rule="nonzero"/></g></g></g><g clip-path="url(#73c92a0dc6)"><g clip-path="url(#86b7d034a8)"><path fill="#c7c7c7" d="M 36.039062 59.007812 L 36.039062 39.304688 L 66.136719 39.304688 L 66.136719 59.007812 Z M 36.039062 59.007812 " fill-opacity="1" fill-rule="nonzero"/></g></g><g clip-path="url(#3c92394b3e)"><g clip-path="url(#a8c323b6f7)"><path fill="#c7c7c7" d="M 57.792969 45.335938 L 37.109375 45.335938 L 37.109375 29.53125 L 57.792969 29.53125 Z M 57.792969 45.335938 " fill-opacity="1" fill-rule="nonzero"/></g></g><g clip-path="url(#38d1155eaf)"><path fill="#c7c7c7" d="M 13.898438 34.992188 L 17.621094 34.992188 L 17.621094 38.714844 L 13.898438 38.714844 Z M 13.898438 34.992188 " fill-opacity="1" fill-rule="nonzero"/></g><g clip-path="url(#35b1b94a45)"><g clip-path="url(#0a4f5c3318)"><path fill="#c7c7c7" d="M 60.230469 13.351562 L 60.230469 27.253906 L 45.511719 27.253906 L 45.511719 13.351562 Z M 60.230469 13.351562 " fill-opacity="1" fill-rule="nonzero"/></g></g><g clip-path="url(#35fadbc62a)"><g clip-path="url(#bce5e9b16c)"><path fill="#c7c7c7" d="M 31.789062 27.246094 L 31.789062 16.40625 L 42.714844 16.40625 L 42.714844 27.246094 Z M 31.789062 27.246094 " fill-opacity="1" fill-rule="nonzero"/></g></g><g clip-path="url(#f790572c48)"><g clip-path="url(#8ba764b541)"><path fill="#c7c7c7" d="M 36.066406 7.992188 L 53.0625 7.992188 L 53.0625 23.105469 L 36.066406 23.105469 Z M 36.066406 7.992188 " fill-opacity="1" fill-rule="nonzero"/></g></g><g clip-path="url(#e1d6975feb)"><path fill="#c7c7c7" d="M 39.808594 17.757812 L 49.308594 17.757812 L 49.308594 27.253906 L 39.808594 27.253906 Z M 39.808594 17.757812 " fill-opacity="1" fill-rule="nonzero"/></g></svg>