<svg xmlns="http://www.w3.org/2000/svg" xmlns:xlink="http://www.w3.org/1999/xlink" width="96" zoomAndPan="magnify" viewBox="0 0 72 67.499998" height="90" preserveAspectRatio="xMidYMid meet" version="1.0"><defs><clipPath id="ef609a02c3"><path d="M 35.011719 15.382812 L 64.25 15.382812 L 64.25 43 L 35.011719 43 Z M 35.011719 15.382812 " clip-rule="nonzero"/></clipPath><clipPath id="d24c231724"><path d="M 63.453125 24.59375 C 63.933594 26.003906 64.25 27.621094 64.25 29.199219 C 64.25 30.78125 63.976562 32.300781 63.496094 33.699219 C 63.480469 33.730469 63.480469 33.761719 63.464844 33.789062 C 61.539062 39.050781 56.453125 42.925781 50.617188 43 L 35.015625 43 L 35.015625 15.382812 L 50.605469 15.382812 C 56.484375 15.457031 61.570312 19.273438 63.453125 24.59375 Z M 63.453125 24.59375 " clip-rule="nonzero"/></clipPath><clipPath id="d79880b717"><path d="M 7.746094 21.460938 L 29.527344 21.460938 L 29.527344 42.992188 L 7.746094 42.992188 Z M 7.746094 21.460938 " clip-rule="nonzero"/></clipPath><clipPath id="d7c6cda71d"><path d="M 8.367188 35.8125 C 7.992188 34.710938 7.746094 33.453125 7.746094 32.222656 C 7.746094 30.992188 7.957031 29.804688 8.332031 28.714844 C 8.34375 28.691406 8.34375 28.667969 8.355469 28.644531 C 9.855469 24.542969 13.820312 21.519531 18.351562 21.460938 L 29.488281 21.460938 L 29.488281 42.992188 L 18.359375 42.992188 C 13.796875 42.9375 9.832031 39.960938 8.367188 35.8125 Z M 8.367188 35.8125 " clip-rule="nonzero"/></clipPath><clipPath id="136cffb519"><path d="M 16.242188 4.742188 L 50 4.742188 L 50 34.753906 L 16.242188 34.753906 Z M 16.242188 4.742188 " clip-rule="nonzero"/></clipPath><clipPath id="e3f00629bc"><path d="M 27.496094 5.714844 C 29.21875 5.125 31.191406 4.742188 33.121094 4.742188 C 35.054688 4.742188 36.910156 5.070312 38.621094 5.660156 C 38.660156 5.679688 38.695312 5.679688 38.730469 5.695312 C 45.160156 8.050781 49.894531 14.265625 49.984375 21.269531 L 49.984375 34.753906 L 16.242188 34.753906 L 16.242188 21.28125 C 16.332031 14.226562 20.996094 8.011719 27.496094 5.714844 Z M 27.496094 5.714844 " clip-rule="nonzero"/></clipPath><clipPath id="ae803fb9be"><path d="M 23.679688 24.132812 L 42.546875 24.132812 L 42.546875 43 L 23.679688 43 Z M 23.679688 24.132812 " clip-rule="nonzero"/></clipPath><clipPath id="14cc508a6f"><path d="M 15 45 L 23 45 L 23 56 L 15 56 Z M 15 45 " clip-rule="nonzero"/></clipPath><clipPath id="014ee5494f"><path d="M 15.097656 54.375 L 20.457031 45.042969 L 23.683594 46.898438 L 18.324219 56.230469 Z M 15.097656 54.375 " clip-rule="nonzero"/></clipPath><clipPath id="69ea27b07c"><path d="M 19.203125 47.226562 C 19.894531 46.023438 21.175781 45.464844 22.066406 45.976562 C 22.960938 46.488281 23.121094 47.878906 22.429688 49.082031 L 19.578125 54.050781 C 18.886719 55.253906 17.601562 55.8125 16.710938 55.300781 C 15.820312 54.789062 15.65625 53.398438 16.347656 52.195312 Z M 19.203125 47.226562 " clip-rule="nonzero"/></clipPath><clipPath id="f2b59e0ebe"><path d="M 21 45 L 33 45 L 33 62 L 21 62 Z M 21 45 " clip-rule="nonzero"/></clipPath><clipPath id="1d8a61b3d8"><path d="M 21.015625 60.40625 L 29.835938 45.046875 L 33.0625 46.902344 L 24.242188 62.261719 Z M 21.015625 60.40625 " clip-rule="nonzero"/></clipPath><clipPath id="d3c7a45bcc"><path d="M 28.582031 47.226562 C 29.273438 46.023438 30.558594 45.464844 31.449219 45.976562 C 32.339844 46.488281 32.503906 47.878906 31.8125 49.082031 L 25.496094 60.082031 C 24.804688 61.285156 23.519531 61.847656 22.628906 61.332031 C 21.738281 60.820312 21.578125 59.429688 22.265625 58.226562 Z M 28.582031 47.226562 " clip-rule="nonzero"/></clipPath><clipPath id="9cc8dc00f9"><path d="M 35 45 L 43 45 L 43 56 L 35 56 Z M 35 45 " clip-rule="nonzero"/></clipPath><clipPath id="03bfc88816"><path d="M 34.453125 54.375 L 39.8125 45.042969 L 43.039062 46.898438 L 37.683594 56.230469 Z M 34.453125 54.375 " clip-rule="nonzero"/></clipPath><clipPath id="6891bef2f5"><path d="M 38.558594 47.226562 C 39.25 46.023438 40.53125 45.464844 41.425781 45.976562 C 42.316406 46.488281 42.476562 47.878906 41.789062 49.082031 L 38.933594 54.050781 C 38.242188 55.253906 36.960938 55.8125 36.070312 55.300781 C 35.175781 54.789062 35.015625 53.398438 35.707031 52.195312 Z M 38.558594 47.226562 " clip-rule="nonzero"/></clipPath><clipPath id="d32644b66a"><path d="M 41 45 L 52 45 L 52 62 L 41 62 Z M 41 45 " clip-rule="nonzero"/></clipPath><clipPath id="7252e4d654"><path d="M 40.222656 60.40625 L 49.042969 45.046875 L 52.269531 46.902344 L 43.453125 62.261719 Z M 40.222656 60.40625 " clip-rule="nonzero"/></clipPath><clipPath id="d2c261af5b"><path d="M 47.792969 47.226562 C 48.484375 46.023438 49.765625 45.464844 50.65625 45.976562 C 51.546875 46.488281 51.710938 47.878906 51.019531 49.082031 L 44.703125 60.082031 C 44.011719 61.285156 42.730469 61.847656 41.835938 61.332031 C 40.945312 60.820312 40.785156 59.429688 41.476562 58.226562 Z M 47.792969 47.226562 " clip-rule="nonzero"/></clipPath></defs><g clip-path="url(#ef609a02c3)"><g clip-path="url(#d24c231724)"><path fill="#c7c7c7" d="M 64.25 15.382812 L 64.25 43 L 35.011719 43 L 35.011719 15.382812 Z M 64.25 15.382812 " fill-opacity="1" fill-rule="nonzero"/></g></g><g clip-path="url(#d79880b717)"><g clip-path="url(#d7c6cda71d)"><path fill="#c7c7c7" d="M 7.746094 42.992188 L 7.746094 21.460938 L 29.445312 21.460938 L 29.445312 42.992188 Z M 7.746094 42.992188 " fill-opacity="1" fill-rule="nonzero"/></g></g><g clip-path="url(#136cffb519)"><g clip-path="url(#e3f00629bc)"><path fill="#c7c7c7" d="M 16.242188 4.742188 L 50.007812 4.742188 L 50.007812 34.753906 L 16.242188 34.753906 Z M 16.242188 4.742188 " fill-opacity="1" fill-rule="nonzero"/></g></g><g clip-path="url(#ae803fb9be)"><path fill="#c7c7c7" d="M 23.679688 24.132812 L 42.546875 24.132812 L 42.546875 43 L 23.679688 43 Z M 23.679688 24.132812 " fill-opacity="1" fill-rule="nonzero"/></g><g clip-path="url(#14cc508a6f)"><g clip-path="url(#014ee5494f)"><g clip-path="url(#69ea27b07c)"><path fill="#3bc9eb" d="M 15.097656 54.375 L 20.457031 45.042969 L 23.683594 46.898438 L 18.324219 56.230469 Z M 15.097656 54.375 " fill-opacity="1" fill-rule="nonzero"/></g></g></g><g clip-path="url(#f2b59e0ebe)"><g clip-path="url(#1d8a61b3d8)"><g clip-path="url(#d3c7a45bcc)"><path fill="#3bc9eb" d="M 21.015625 60.40625 L 29.835938 45.046875 L 33.0625 46.902344 L 24.242188 62.261719 Z M 21.015625 60.40625 " fill-opacity="1" fill-rule="nonzero"/></g></g></g><g clip-path="url(#9cc8dc00f9)"><g clip-path="url(#03bfc88816)"><g clip-path="url(#6891bef2f5)"><path fill="#3bc9eb" d="M 34.453125 54.375 L 39.8125 45.042969 L 43.039062 46.898438 L 37.683594 56.230469 Z M 34.453125 54.375 " fill-opacity="1" fill-rule="nonzero"/></g></g></g><g clip-path="url(#d32644b66a)"><g clip-path="url(#7252e4d654)"><g clip-path="url(#d2c261af5b)"><path fill="#3bc9eb" d="M 40.222656 60.40625 L 49.042969 45.046875 L 52.269531 46.902344 L 43.453125 62.261719 Z M 40.222656 60.40625 " fill-opacity="1" fill-rule="nonzero"/></g></g></g></svg>