<svg xmlns="http://www.w3.org/2000/svg" xmlns:xlink="http://www.w3.org/1999/xlink" width="96" zoomAndPan="magnify" viewBox="0 0 72 67.499998" height="90" preserveAspectRatio="xMidYMid meet" version="1.0"><defs><clipPath id="87f35aa9b8"><path d="M 35.011719 15.382812 L 64.25 15.382812 L 64.25 43 L 35.011719 43 Z M 35.011719 15.382812 " clip-rule="nonzero"/></clipPath><clipPath id="cef6be6137"><path d="M 63.453125 24.59375 C 63.933594 26.003906 64.25 27.621094 64.25 29.199219 C 64.25 30.78125 63.976562 32.300781 63.496094 33.699219 C 63.480469 33.730469 63.480469 33.761719 63.464844 33.789062 C 61.539062 39.050781 56.453125 42.925781 50.617188 43 L 35.015625 43 L 35.015625 15.382812 L 50.605469 15.382812 C 56.484375 15.457031 61.570312 19.273438 63.453125 24.59375 Z M 63.453125 24.59375 " clip-rule="nonzero"/></clipPath><clipPath id="ad3a050f11"><path d="M 7.746094 21.460938 L 29.527344 21.460938 L 29.527344 42.992188 L 7.746094 42.992188 Z M 7.746094 21.460938 " clip-rule="nonzero"/></clipPath><clipPath id="6586220de7"><path d="M 8.367188 35.8125 C 7.992188 34.710938 7.746094 33.453125 7.746094 32.222656 C 7.746094 30.992188 7.957031 29.804688 8.332031 28.714844 C 8.34375 28.691406 8.34375 28.667969 8.355469 28.644531 C 9.855469 24.542969 13.820312 21.519531 18.351562 21.460938 L 29.488281 21.460938 L 29.488281 42.992188 L 18.359375 42.992188 C 13.796875 42.9375 9.832031 39.960938 8.367188 35.8125 Z M 8.367188 35.8125 " clip-rule="nonzero"/></clipPath><clipPath id="ba8d2144a1"><path d="M 16.242188 4.742188 L 50 4.742188 L 50 34.753906 L 16.242188 34.753906 Z M 16.242188 4.742188 " clip-rule="nonzero"/></clipPath><clipPath id="74622b2e38"><path d="M 27.496094 5.714844 C 29.21875 5.125 31.191406 4.742188 33.121094 4.742188 C 35.054688 4.742188 36.910156 5.070312 38.621094 5.660156 C 38.660156 5.679688 38.695312 5.679688 38.730469 5.695312 C 45.160156 8.050781 49.894531 14.265625 49.984375 21.269531 L 49.984375 34.753906 L 16.242188 34.753906 L 16.242188 21.28125 C 16.332031 14.226562 20.996094 8.011719 27.496094 5.714844 Z M 27.496094 5.714844 " clip-rule="nonzero"/></clipPath><clipPath id="9ab6391cd1"><path d="M 23.679688 24.132812 L 42.546875 24.132812 L 42.546875 43 L 23.679688 43 Z M 23.679688 24.132812 " clip-rule="nonzero"/></clipPath><clipPath id="cc96aa69ec"><path d="M 12 45 L 20 45 L 20 56 L 12 56 Z M 12 45 " clip-rule="nonzero"/></clipPath><clipPath id="4003a12983"><path d="M 11.949219 54.375 L 17.304688 45.042969 L 20.535156 46.898438 L 15.175781 56.230469 Z M 11.949219 54.375 " clip-rule="nonzero"/></clipPath><clipPath id="1b698a5fe7"><path d="M 16.054688 47.226562 C 16.742188 46.023438 18.027344 45.464844 18.917969 45.976562 C 19.808594 46.488281 19.972656 47.878906 19.28125 49.082031 L 16.425781 54.050781 C 15.734375 55.253906 14.453125 55.8125 13.5625 55.300781 C 12.671875 54.789062 12.507812 53.398438 13.199219 52.195312 Z M 16.054688 47.226562 " clip-rule="nonzero"/></clipPath><clipPath id="11b7cde605"><path d="M 47 45 L 55 45 L 55 56 L 47 56 Z M 47 45 " clip-rule="nonzero"/></clipPath><clipPath id="e110c03d90"><path d="M 46.8125 54.375 L 52.171875 45.042969 L 55.398438 46.898438 L 50.039062 56.230469 Z M 46.8125 54.375 " clip-rule="nonzero"/></clipPath><clipPath id="9068e98ddc"><path d="M 50.917969 47.226562 C 51.609375 46.023438 52.890625 45.464844 53.78125 45.976562 C 54.675781 46.488281 54.835938 47.878906 54.144531 49.082031 L 51.292969 54.050781 C 50.601562 55.253906 49.316406 55.8125 48.425781 55.300781 C 47.535156 54.789062 47.375 53.398438 48.0625 52.195312 Z M 50.917969 47.226562 " clip-rule="nonzero"/></clipPath><clipPath id="8ed14b1f7b"><path d="M 17 53 L 25 53 L 25 63 L 17 63 Z M 17 53 " clip-rule="nonzero"/></clipPath><clipPath id="85173e0ef8"><path d="M 17.160156 61.671875 L 22.519531 52.339844 L 25.746094 54.195312 L 20.386719 63.523438 Z M 17.160156 61.671875 " clip-rule="nonzero"/></clipPath><clipPath id="c9ae60c847"><path d="M 21.265625 54.523438 C 21.957031 53.320312 23.238281 52.757812 24.128906 53.269531 C 25.019531 53.78125 25.183594 55.171875 24.492188 56.378906 L 21.640625 61.347656 C 20.949219 62.550781 19.664062 63.109375 18.773438 62.597656 C 17.882812 62.085938 17.71875 60.695312 18.410156 59.492188 Z M 21.265625 54.523438 " clip-rule="nonzero"/></clipPath><clipPath id="dabe9b11f0"><path d="M 51 53 L 59 53 L 59 63 L 51 63 Z M 51 53 " clip-rule="nonzero"/></clipPath><clipPath id="052fb7b402"><path d="M 51.105469 61.671875 L 56.464844 52.339844 L 59.691406 54.195312 L 54.332031 63.523438 Z M 51.105469 61.671875 " clip-rule="nonzero"/></clipPath><clipPath id="b80c9b5ced"><path d="M 55.210938 54.523438 C 55.902344 53.320312 57.183594 52.757812 58.074219 53.269531 C 58.964844 53.78125 59.128906 55.171875 58.4375 56.378906 L 55.585938 61.347656 C 54.894531 62.550781 53.609375 63.109375 52.71875 62.597656 C 51.828125 62.085938 51.664062 60.695312 52.355469 59.492188 Z M 55.210938 54.523438 " clip-rule="nonzero"/></clipPath><clipPath id="ae1db9ce53"><path d="M 27.363281 46.40625 L 39.992188 46.40625 L 39.992188 56.234375 L 27.363281 56.234375 Z M 27.363281 46.40625 " clip-rule="nonzero"/></clipPath><clipPath id="b346f69218"><path d="M 32.476562 46.40625 L 39.964844 46.40625 L 34.851562 56.234375 L 27.363281 56.234375 Z M 32.476562 46.40625 " clip-rule="nonzero"/></clipPath><clipPath id="878a92eaa8"><path d="M 29 50 L 42 50 L 42 65 L 29 65 Z M 29 50 " clip-rule="nonzero"/></clipPath><clipPath id="01e36cdc60"><path d="M 35.96875 50.777344 L 41.175781 54.59375 L 32.171875 66.871094 L 26.96875 63.058594 Z M 35.96875 50.777344 " clip-rule="nonzero"/></clipPath><clipPath id="b5a86dcfa2"><path d="M 29.570312 64.964844 L 41.175781 54.59375 L 35.96875 50.777344 Z M 29.570312 64.964844 " clip-rule="nonzero"/></clipPath><clipPath id="f5c221b405"><path d="M 36 51.460938 L 44.828125 51.460938 L 44.828125 55.183594 L 36 55.183594 Z M 36 51.460938 " clip-rule="nonzero"/></clipPath><clipPath id="540c7ed3c9"><path d="M 40.414062 55.183594 L 44.824219 51.460938 L 36 51.460938 Z M 40.414062 55.183594 " clip-rule="nonzero"/></clipPath></defs><g clip-path="url(#87f35aa9b8)"><g clip-path="url(#cef6be6137)"><path fill="#c7c7c7" d="M 64.25 15.382812 L 64.25 43 L 35.011719 43 L 35.011719 15.382812 Z M 64.25 15.382812 " fill-opacity="1" fill-rule="nonzero"/></g></g><g clip-path="url(#ad3a050f11)"><g clip-path="url(#6586220de7)"><path fill="#c7c7c7" d="M 7.746094 42.992188 L 7.746094 21.460938 L 29.445312 21.460938 L 29.445312 42.992188 Z M 7.746094 42.992188 " fill-opacity="1" fill-rule="nonzero"/></g></g><g clip-path="url(#ba8d2144a1)"><g clip-path="url(#74622b2e38)"><path fill="#c7c7c7" d="M 16.242188 4.742188 L 50.007812 4.742188 L 50.007812 34.753906 L 16.242188 34.753906 Z M 16.242188 4.742188 " fill-opacity="1" fill-rule="nonzero"/></g></g><g clip-path="url(#9ab6391cd1)"><path fill="#c7c7c7" d="M 23.679688 24.132812 L 42.546875 24.132812 L 42.546875 43 L 23.679688 43 Z M 23.679688 24.132812 " fill-opacity="1" fill-rule="nonzero"/></g><g clip-path="url(#cc96aa69ec)"><g clip-path="url(#4003a12983)"><g clip-path="url(#1b698a5fe7)"><path fill="#3bc9eb" d="M 11.949219 54.375 L 17.304688 45.042969 L 20.535156 46.898438 L 15.175781 56.230469 Z M 11.949219 54.375 " fill-opacity="1" fill-rule="nonzero"/></g></g></g><g clip-path="url(#11b7cde605)"><g clip-path="url(#e110c03d90)"><g clip-path="url(#9068e98ddc)"><path fill="#3bc9eb" d="M 46.8125 54.375 L 52.171875 45.042969 L 55.398438 46.898438 L 50.039062 56.230469 Z M 46.8125 54.375 " fill-opacity="1" fill-rule="nonzero"/></g></g></g><g clip-path="url(#8ed14b1f7b)"><g clip-path="url(#85173e0ef8)"><g clip-path="url(#c9ae60c847)"><path fill="#3bc9eb" d="M 17.160156 61.671875 L 22.519531 52.339844 L 25.746094 54.195312 L 20.386719 63.523438 Z M 17.160156 61.671875 " fill-opacity="1" fill-rule="nonzero"/></g></g></g><g clip-path="url(#dabe9b11f0)"><g clip-path="url(#052fb7b402)"><g clip-path="url(#b80c9b5ced)"><path fill="#3bc9eb" d="M 51.105469 61.671875 L 56.464844 52.339844 L 59.691406 54.195312 L 54.332031 63.523438 Z M 51.105469 61.671875 " fill-opacity="1" fill-rule="nonzero"/></g></g></g><g clip-path="url(#ae1db9ce53)"><g clip-path="url(#b346f69218)"><path fill="#c7c7c7" d="M 27.363281 46.40625 L 39.953125 46.40625 L 39.953125 56.234375 L 27.363281 56.234375 Z M 27.363281 46.40625 " fill-opacity="1" fill-rule="nonzero"/></g></g><g clip-path="url(#878a92eaa8)"><g clip-path="url(#01e36cdc60)"><g clip-path="url(#b5a86dcfa2)"><path fill="#c7c7c7" d="M 35.96875 50.777344 L 41.175781 54.59375 L 32.171875 66.871094 L 26.96875 63.058594 Z M 35.96875 50.777344 " fill-opacity="1" fill-rule="nonzero"/></g></g></g><g clip-path="url(#f5c221b405)"><g clip-path="url(#540c7ed3c9)"><path fill="#c7c7c7" d="M 36 51.460938 L 44.828125 51.460938 L 44.828125 55.183594 L 36 55.183594 Z M 36 51.460938 " fill-opacity="1" fill-rule="nonzero"/></g></g></svg>