<svg xmlns="http://www.w3.org/2000/svg" xmlns:xlink="http://www.w3.org/1999/xlink" width="96" zoomAndPan="magnify" viewBox="0 0 72 67.499998" height="90" preserveAspectRatio="xMidYMid meet" version="1.0"><defs><clipPath id="ee053427e8"><path d="M 14 11 L 24 11 L 24 22 L 14 22 Z M 14 11 " clip-rule="nonzero"/></clipPath><clipPath id="a8fa4d11b3"><path d="M 16.941406 10.988281 L 24.988281 19.035156 L 21.566406 22.457031 L 13.519531 14.410156 Z M 16.941406 10.988281 " clip-rule="nonzero"/></clipPath><clipPath id="3ae92cdab1"><path d="M 23.265625 17.3125 C 24.210938 18.257812 24.210938 19.789062 23.265625 20.734375 C 22.320312 21.679688 20.789062 21.679688 19.84375 20.734375 L 15.230469 16.121094 C 14.285156 15.175781 14.285156 13.644531 15.230469 12.699219 C 16.175781 11.753906 17.707031 11.753906 18.652344 12.699219 Z M 23.265625 17.3125 " clip-rule="nonzero"/></clipPath><clipPath id="993c7f86cb"><path d="M 48 45 L 58 45 L 58 56 L 48 56 Z M 48 45 " clip-rule="nonzero"/></clipPath><clipPath id="b2045b8fca"><path d="M 50.742188 44.640625 L 58.789062 52.6875 L 55.367188 56.109375 L 47.320312 48.0625 Z M 50.742188 44.640625 " clip-rule="nonzero"/></clipPath><clipPath id="32a0e0cc05"><path d="M 57.066406 50.964844 C 58.007812 51.910156 58.007812 53.441406 57.066406 54.386719 C 56.121094 55.328125 54.585938 55.328125 53.644531 54.386719 L 49.03125 49.773438 C 48.085938 48.828125 48.085938 47.296875 49.03125 46.351562 C 49.976562 45.40625 51.507812 45.40625 52.453125 46.351562 Z M 57.066406 50.964844 " clip-rule="nonzero"/></clipPath><clipPath id="92660fcddb"><path d="M 14 45 L 24 45 L 24 55 L 14 55 Z M 14 45 " clip-rule="nonzero"/></clipPath><clipPath id="e696006e8a"><path d="M 24.816406 47.878906 L 16.769531 55.925781 L 13.347656 52.503906 L 21.394531 44.457031 Z M 24.816406 47.878906 " clip-rule="nonzero"/></clipPath><clipPath id="e539d68799"><path d="M 18.492188 54.203125 C 17.546875 55.148438 16.015625 55.148438 15.070312 54.203125 C 14.128906 53.257812 14.128906 51.726562 15.070312 50.78125 L 19.683594 46.167969 C 20.628906 45.222656 22.160156 45.222656 23.105469 46.167969 C 24.050781 47.113281 24.050781 48.644531 23.105469 49.589844 Z M 18.492188 54.203125 " clip-rule="nonzero"/></clipPath><clipPath id="382752442d"><path d="M 48 11 L 58 11 L 58 22 L 48 22 Z M 48 11 " clip-rule="nonzero"/></clipPath><clipPath id="c41407b321"><path d="M 58.769531 14.410156 L 50.722656 22.457031 L 47.300781 19.035156 L 55.347656 10.988281 Z M 58.769531 14.410156 " clip-rule="nonzero"/></clipPath><clipPath id="4aff3039b3"><path d="M 52.445312 20.734375 C 51.5 21.679688 49.96875 21.679688 49.023438 20.734375 C 48.078125 19.789062 48.078125 18.257812 49.023438 17.3125 L 53.636719 12.699219 C 54.582031 11.753906 56.113281 11.753906 57.058594 12.699219 C 58.003906 13.644531 58.003906 15.175781 57.058594 16.121094 Z M 52.445312 20.734375 " clip-rule="nonzero"/></clipPath><clipPath id="58be3e130e"><path d="M 53.644531 31.082031 L 65.027344 31.082031 L 65.027344 35.921875 L 53.644531 35.921875 Z M 53.644531 31.082031 " clip-rule="nonzero"/></clipPath><clipPath id="962a89c4a5"><path d="M 56.082031 35.921875 C 54.746094 35.921875 53.664062 34.839844 53.664062 33.5 C 53.664062 32.164062 54.746094 31.082031 56.082031 31.082031 L 62.605469 31.082031 C 63.941406 31.082031 65.027344 32.164062 65.027344 33.5 C 65.027344 34.839844 63.941406 35.921875 62.605469 35.921875 Z M 56.082031 35.921875 " clip-rule="nonzero"/></clipPath><clipPath id="615d5722aa"><path d="M 6.9375 31.027344 L 18.320312 31.027344 L 18.320312 35.867188 L 6.9375 35.867188 Z M 6.9375 31.027344 " clip-rule="nonzero"/></clipPath><clipPath id="c497e877fc"><path d="M 9.375 35.867188 C 8.039062 35.867188 6.957031 34.785156 6.957031 33.449219 C 6.957031 32.113281 8.039062 31.027344 9.375 31.027344 L 15.898438 31.027344 C 17.234375 31.027344 18.320312 32.113281 18.320312 33.449219 C 18.320312 34.785156 17.234375 35.867188 15.898438 35.867188 Z M 9.375 35.867188 " clip-rule="nonzero"/></clipPath><clipPath id="1c1e9c6938"><path d="M 33.574219 3.820312 L 38.414062 3.820312 L 38.414062 15.199219 L 33.574219 15.199219 Z M 33.574219 3.820312 " clip-rule="nonzero"/></clipPath><clipPath id="ad55709a8d"><path d="M 38.414062 12.761719 C 38.414062 14.097656 37.332031 15.183594 35.996094 15.183594 C 34.660156 15.183594 33.574219 14.097656 33.574219 12.761719 L 33.574219 6.238281 C 33.574219 4.902344 34.660156 3.820312 35.996094 3.820312 C 37.332031 3.820312 38.414062 4.902344 38.414062 6.238281 Z M 38.414062 12.761719 " clip-rule="nonzero"/></clipPath><clipPath id="9f9a8c792d"><path d="M 33.574219 51.464844 L 38.414062 51.464844 L 38.414062 62.847656 L 33.574219 62.847656 Z M 33.574219 51.464844 " clip-rule="nonzero"/></clipPath><clipPath id="7f5fcfc890"><path d="M 38.414062 60.410156 C 38.414062 61.746094 37.332031 62.828125 35.996094 62.828125 C 34.660156 62.828125 33.574219 61.746094 33.574219 60.410156 L 33.574219 53.886719 C 33.574219 52.550781 34.660156 51.464844 35.996094 51.464844 C 37.332031 51.464844 38.414062 52.550781 38.414062 53.886719 Z M 38.414062 60.410156 " clip-rule="nonzero"/></clipPath><clipPath id="d76fa5a86b"><path d="M 21.183594 18.683594 L 50.816406 18.683594 L 50.816406 48.320312 L 21.183594 48.320312 Z M 21.183594 18.683594 " clip-rule="nonzero"/></clipPath><clipPath id="9e5534254a"><path d="M 36 18.683594 C 27.816406 18.683594 21.183594 25.316406 21.183594 33.5 C 21.183594 41.683594 27.816406 48.320312 36 48.320312 C 44.183594 48.320312 50.816406 41.683594 50.816406 33.5 C 50.816406 25.316406 44.183594 18.683594 36 18.683594 Z M 36 18.683594 " clip-rule="nonzero"/></clipPath></defs><g clip-path="url(#ee053427e8)"><g clip-path="url(#a8fa4d11b3)"><g clip-path="url(#3ae92cdab1)"><path fill="#fad631" d="M 16.941406 10.988281 L 24.972656 19.023438 L 21.550781 22.445312 L 13.519531 14.410156 Z M 16.941406 10.988281 " fill-opacity="1" fill-rule="nonzero"/></g></g></g><g clip-path="url(#993c7f86cb)"><g clip-path="url(#b2045b8fca)"><g clip-path="url(#32a0e0cc05)"><path fill="#fad631" d="M 50.742188 44.640625 L 58.773438 52.671875 L 55.351562 56.09375 L 47.320312 48.0625 Z M 50.742188 44.640625 " fill-opacity="1" fill-rule="nonzero"/></g></g></g><g clip-path="url(#92660fcddb)"><g clip-path="url(#e696006e8a)"><g clip-path="url(#e539d68799)"><path fill="#fad631" d="M 24.816406 47.878906 L 16.785156 55.914062 L 13.363281 52.492188 L 21.394531 44.457031 Z M 24.816406 47.878906 " fill-opacity="1" fill-rule="nonzero"/></g></g></g><g clip-path="url(#382752442d)"><g clip-path="url(#c41407b321)"><g clip-path="url(#4aff3039b3)"><path fill="#fad631" d="M 58.769531 14.410156 L 50.734375 22.445312 L 47.3125 19.023438 L 55.347656 10.988281 Z M 58.769531 14.410156 " fill-opacity="1" fill-rule="nonzero"/></g></g></g><g clip-path="url(#58be3e130e)"><g clip-path="url(#962a89c4a5)"><path fill="#fad631" d="M 65.027344 35.921875 L 53.664062 35.921875 L 53.664062 31.082031 L 65.027344 31.082031 Z M 65.027344 35.921875 " fill-opacity="1" fill-rule="nonzero"/></g></g><g clip-path="url(#615d5722aa)"><g clip-path="url(#c497e877fc)"><path fill="#fad631" d="M 18.320312 35.867188 L 6.957031 35.867188 L 6.957031 31.027344 L 18.320312 31.027344 Z M 18.320312 35.867188 " fill-opacity="1" fill-rule="nonzero"/></g></g><g clip-path="url(#1c1e9c6938)"><g clip-path="url(#ad55709a8d)"><path fill="#fad631" d="M 38.414062 3.820312 L 38.414062 15.179688 L 33.574219 15.179688 L 33.574219 3.820312 Z M 38.414062 3.820312 " fill-opacity="1" fill-rule="nonzero"/></g></g><g clip-path="url(#9f9a8c792d)"><g clip-path="url(#7f5fcfc890)"><path fill="#fad631" d="M 38.414062 51.464844 L 38.414062 62.828125 L 33.574219 62.828125 L 33.574219 51.464844 Z M 38.414062 51.464844 " fill-opacity="1" fill-rule="nonzero"/></g></g><g clip-path="url(#d76fa5a86b)"><g clip-path="url(#9e5534254a)"><path fill="#fad631" d="M 21.183594 18.683594 L 50.816406 18.683594 L 50.816406 48.320312 L 21.183594 48.320312 Z M 21.183594 18.683594 " fill-opacity="1" fill-rule="nonzero"/></g></g></svg>