<svg xmlns="http://www.w3.org/2000/svg" xmlns:xlink="http://www.w3.org/1999/xlink" width="96" zoomAndPan="magnify" viewBox="0 0 72 67.499998" height="90" preserveAspectRatio="xMidYMid meet" version="1.0"><defs><clipPath id="f5fe296d83"><path d="M 35.011719 25.015625 L 64.246094 25.015625 L 64.246094 52.632812 L 35.011719 52.632812 Z M 35.011719 25.015625 " clip-rule="nonzero"/></clipPath><clipPath id="9e173dd13d"><path d="M 63.449219 34.226562 C 63.929688 35.636719 64.246094 37.25 64.246094 38.832031 C 64.246094 40.410156 63.976562 41.929688 63.496094 43.332031 C 63.480469 43.363281 63.480469 43.390625 63.464844 43.421875 C 61.539062 48.683594 56.453125 52.558594 50.613281 52.632812 L 35.015625 52.632812 L 35.015625 25.015625 L 50.601562 25.015625 C 56.484375 25.089844 61.570312 28.902344 63.449219 34.226562 Z M 63.449219 34.226562 " clip-rule="nonzero"/></clipPath><clipPath id="ab5bd8c467"><path d="M 7.746094 31.09375 L 29.53125 31.09375 L 29.53125 52.625 L 7.746094 52.625 Z M 7.746094 31.09375 " clip-rule="nonzero"/></clipPath><clipPath id="637b10646c"><path d="M 8.367188 45.445312 C 7.992188 44.34375 7.746094 43.085938 7.746094 41.855469 C 7.746094 40.621094 7.957031 39.4375 8.332031 38.34375 C 8.34375 38.320312 8.34375 38.296875 8.355469 38.273438 C 9.859375 34.171875 13.824219 31.152344 18.351562 31.09375 L 29.488281 31.09375 L 29.488281 52.625 L 18.359375 52.625 C 13.800781 52.566406 9.835938 49.59375 8.367188 45.445312 Z M 8.367188 45.445312 " clip-rule="nonzero"/></clipPath><clipPath id="2f60c10fbb"><path d="M 16.242188 14.371094 L 50 14.371094 L 50 44.386719 L 16.242188 44.386719 Z M 16.242188 14.371094 " clip-rule="nonzero"/></clipPath><clipPath id="d020e5c944"><path d="M 27.496094 15.347656 C 29.21875 14.757812 31.191406 14.371094 33.121094 14.371094 C 35.054688 14.371094 36.910156 14.703125 38.621094 15.292969 C 38.660156 15.308594 38.695312 15.308594 38.730469 15.328125 C 45.160156 17.679688 49.894531 23.894531 49.984375 30.902344 L 49.984375 44.386719 L 16.242188 44.386719 L 16.242188 30.910156 C 16.332031 23.859375 20.996094 17.644531 27.496094 15.347656 Z M 27.496094 15.347656 " clip-rule="nonzero"/></clipPath><clipPath id="cea91fe3d4"><path d="M 23.679688 33.761719 L 42.546875 33.761719 L 42.546875 52.632812 L 23.679688 52.632812 Z M 23.679688 33.761719 " clip-rule="nonzero"/></clipPath></defs><g clip-path="url(#f5fe296d83)"><g clip-path="url(#9e173dd13d)"><path fill="#c7c7c7" d="M 64.246094 25.015625 L 64.246094 52.632812 L 35.011719 52.632812 L 35.011719 25.015625 Z M 64.246094 25.015625 " fill-opacity="1" fill-rule="nonzero"/></g></g><g clip-path="url(#ab5bd8c467)"><g clip-path="url(#637b10646c)"><path fill="#c7c7c7" d="M 7.746094 52.625 L 7.746094 31.09375 L 29.445312 31.09375 L 29.445312 52.625 Z M 7.746094 52.625 " fill-opacity="1" fill-rule="nonzero"/></g></g><g clip-path="url(#2f60c10fbb)"><g clip-path="url(#d020e5c944)"><path fill="#c7c7c7" d="M 16.242188 14.371094 L 50.007812 14.371094 L 50.007812 44.386719 L 16.242188 44.386719 Z M 16.242188 14.371094 " fill-opacity="1" fill-rule="nonzero"/></g></g><g clip-path="url(#cea91fe3d4)"><path fill="#c7c7c7" d="M 23.679688 33.761719 L 42.546875 33.761719 L 42.546875 52.632812 L 23.679688 52.632812 Z M 23.679688 33.761719 " fill-opacity="1" fill-rule="nonzero"/></g></svg>