<svg xmlns="http://www.w3.org/2000/svg" xmlns:xlink="http://www.w3.org/1999/xlink" width="96" zoomAndPan="magnify" viewBox="0 0 72 67.499998" height="90" preserveAspectRatio="xMidYMid meet" version="1.0"><defs><clipPath id="599e22395f"><path d="M 19.445312 9.425781 L 52.203125 9.425781 L 52.203125 57.816406 L 19.445312 57.816406 Z M 19.445312 9.425781 " clip-rule="nonzero"/></clipPath></defs><g clip-path="url(#599e22395f)"><path fill="#c7c7c7" d="M 36 57.570312 C 26.902344 57.570312 19.5 50.171875 19.5 41.074219 C 19.5 28.671875 34.222656 10.867188 34.847656 10.113281 C 35.417969 9.429688 36.582031 9.429688 37.152344 10.113281 C 37.777344 10.867188 52.5 28.671875 52.5 41.074219 C 52.5 50.171875 45.097656 57.570312 36 57.570312 Z M 36 13.480469 C 32.542969 17.929688 22.5 31.65625 22.5 41.074219 C 22.5 48.515625 28.558594 54.570312 36 54.570312 C 43.441406 54.570312 49.5 48.515625 49.5 41.074219 C 49.5 31.65625 39.457031 17.929688 36 13.480469 Z M 36 13.480469 " fill-opacity="1" fill-rule="nonzero"/></g><path fill="#c7c7c7" d="M 30 42.574219 C 28.039062 42.574219 26.5 40.597656 26.5 38.074219 C 26.5 35.550781 28.039062 33.574219 30 33.574219 C 31.964844 33.574219 33.5 35.550781 33.5 38.074219 C 33.5 40.597656 31.964844 42.574219 30 42.574219 Z M 29.960938 36.566406 C 29.886719 36.628906 29.5 37.171875 29.5 38.074219 C 29.5 38.976562 29.886719 39.515625 30.039062 39.578125 C 30.113281 39.515625 30.5 38.976562 30.5 38.074219 C 30.5 37.171875 30.113281 36.628906 29.960938 36.566406 Z M 29.960938 36.566406 " fill-opacity="1" fill-rule="nonzero"/><path fill="#c7c7c7" d="M 42 45.574219 C 40.035156 45.574219 38.5 43.597656 38.5 41.074219 C 38.5 38.550781 40.035156 36.574219 42 36.574219 C 43.960938 36.574219 45.5 38.550781 45.5 41.074219 C 45.5 43.597656 43.960938 45.574219 42 45.574219 Z M 41.960938 39.566406 C 41.886719 39.628906 41.5 40.171875 41.5 41.074219 C 41.5 41.976562 41.886719 42.515625 42.039062 42.578125 C 42.113281 42.515625 42.5 41.976562 42.5 41.074219 C 42.5 40.171875 42.113281 39.628906 41.960938 39.566406 Z M 41.960938 39.566406 " fill-opacity="1" fill-rule="nonzero"/><path fill="#c7c7c7" d="M 33 48.574219 C 32.8125 48.574219 32.625 48.539062 32.441406 48.464844 C 31.671875 48.15625 31.300781 47.285156 31.605469 46.515625 L 37.605469 31.515625 C 37.914062 30.746094 38.78125 30.375 39.558594 30.679688 C 40.324219 30.988281 40.699219 31.859375 40.394531 32.628906 L 34.394531 47.628906 C 34.15625 48.214844 33.59375 48.574219 33 48.574219 Z M 33 48.574219 " fill-opacity="1" fill-rule="nonzero"/></svg>