<svg xmlns="http://www.w3.org/2000/svg" xmlns:xlink="http://www.w3.org/1999/xlink" width="96" zoomAndPan="magnify" viewBox="0 0 72 67.499998" height="90" preserveAspectRatio="xMidYMid meet" version="1.0"><defs><clipPath id="43b0e910a3"><path d="M 22.851562 19.628906 L 50 19.628906 L 50 30 L 22.851562 30 Z M 22.851562 19.628906 " clip-rule="nonzero"/></clipPath><clipPath id="3f7f067f4d"><path d="M 27 22 L 61.726562 22 L 61.726562 36 L 27 36 Z M 27 22 " clip-rule="nonzero"/></clipPath><clipPath id="13ff3ccb02"><path d="M 16.035156 36.613281 L 29.675781 36.613281 L 29.675781 39.875 L 16.035156 39.875 Z M 16.035156 36.613281 " clip-rule="nonzero"/></clipPath><clipPath id="806ad8095b"><path d="M 28.035156 36.613281 C 28.9375 36.613281 29.664062 37.34375 29.664062 38.246094 C 29.664062 39.144531 28.9375 39.875 28.035156 39.875 L 17.664062 39.875 C 16.765625 39.875 16.035156 39.144531 16.035156 38.246094 C 16.035156 37.34375 16.765625 36.613281 17.664062 36.613281 Z M 28.035156 36.613281 " clip-rule="nonzero"/></clipPath><clipPath id="ddcd8d1b96"><path d="M 21.335938 31.847656 L 30.65625 31.847656 L 30.65625 35.15625 L 21.335938 35.15625 Z M 21.335938 31.847656 " clip-rule="nonzero"/></clipPath><clipPath id="cd94070e83"><path d="M 28.996094 31.847656 C 29.90625 31.847656 30.648438 32.589844 30.648438 33.5 C 30.648438 34.414062 29.90625 35.15625 28.996094 35.15625 L 22.988281 35.15625 C 22.074219 35.15625 21.335938 34.414062 21.335938 33.5 C 21.335938 32.589844 22.074219 31.847656 22.988281 31.847656 Z M 28.996094 31.847656 " clip-rule="nonzero"/></clipPath><clipPath id="58bbabf467"><path d="M 9.863281 31.847656 L 19.1875 31.847656 L 19.1875 35.15625 L 9.863281 35.15625 Z M 9.863281 31.847656 " clip-rule="nonzero"/></clipPath><clipPath id="5157b94121"><path d="M 17.523438 31.847656 C 18.4375 31.847656 19.175781 32.589844 19.175781 33.5 C 19.175781 34.414062 18.4375 35.15625 17.523438 35.15625 L 11.515625 35.15625 C 10.601562 35.15625 9.863281 34.414062 9.863281 33.5 C 9.863281 32.589844 10.601562 31.847656 11.515625 31.847656 Z M 17.523438 31.847656 " clip-rule="nonzero"/></clipPath><clipPath id="c0d2515e94"><path d="M 11.378906 26.46875 L 20.703125 26.46875 L 20.703125 29.773438 L 11.378906 29.773438 Z M 11.378906 26.46875 " clip-rule="nonzero"/></clipPath><clipPath id="128df339c0"><path d="M 19.039062 26.46875 C 19.953125 26.46875 20.691406 27.207031 20.691406 28.121094 C 20.691406 29.035156 19.953125 29.773438 19.039062 29.773438 L 13.03125 29.773438 C 12.117188 29.773438 11.378906 29.035156 11.378906 28.121094 C 11.378906 27.207031 12.117188 26.46875 13.03125 26.46875 Z M 19.039062 26.46875 " clip-rule="nonzero"/></clipPath></defs><g clip-path="url(#43b0e910a3)"><path fill="#c7c7c7" d="M 49.132812 24.933594 C 49.132812 24.359375 49.035156 23.804688 48.839844 23.265625 C 48.648438 22.722656 48.367188 22.234375 48.003906 21.792969 C 47.636719 21.347656 47.210938 20.980469 46.71875 20.6875 C 46.222656 20.394531 45.695312 20.195312 45.132812 20.085938 C 44.570312 19.976562 44.007812 19.964844 43.441406 20.050781 C 42.875 20.136719 42.339844 20.320312 41.835938 20.59375 C 41.332031 20.867188 40.886719 21.214844 40.503906 21.644531 C 40.125 22.070312 39.824219 22.550781 39.609375 23.082031 C 39.53125 23.28125 39.488281 23.484375 39.492188 23.699219 C 39.492188 23.910156 39.535156 24.117188 39.617188 24.3125 C 39.699219 24.511719 39.816406 24.683594 39.96875 24.832031 C 40.121094 24.984375 40.296875 25.097656 40.492188 25.179688 C 40.691406 25.257812 40.898438 25.296875 41.109375 25.292969 C 41.324219 25.292969 41.527344 25.25 41.722656 25.164062 C 41.921875 25.082031 42.09375 24.964844 42.242188 24.8125 C 42.390625 24.65625 42.503906 24.484375 42.585938 24.285156 C 42.664062 24.089844 42.773438 23.914062 42.917969 23.757812 C 43.058594 23.605469 43.226562 23.480469 43.414062 23.382812 C 43.601562 23.289062 43.800781 23.230469 44.007812 23.210938 C 44.21875 23.1875 44.425781 23.203125 44.628906 23.257812 C 44.832031 23.308594 45.019531 23.398438 45.191406 23.519531 C 45.363281 23.640625 45.511719 23.789062 45.628906 23.964844 C 45.746094 24.136719 45.828125 24.328125 45.878906 24.53125 C 45.925781 24.738281 45.9375 24.945312 45.910156 25.152344 C 45.882812 25.363281 45.820312 25.558594 45.722656 25.746094 C 45.621094 25.933594 45.496094 26.09375 45.335938 26.234375 C 45.179688 26.375 45 26.480469 44.804688 26.554688 C 44.605469 26.628906 44.402344 26.664062 44.191406 26.664062 L 24.445312 26.664062 C 24.234375 26.664062 24.027344 26.707031 23.832031 26.789062 C 23.636719 26.871094 23.460938 26.984375 23.3125 27.136719 C 23.160156 27.285156 23.046875 27.460938 22.964844 27.65625 C 22.882812 27.851562 22.84375 28.058594 22.84375 28.269531 C 22.84375 28.480469 22.882812 28.6875 22.964844 28.882812 C 23.046875 29.078125 23.160156 29.253906 23.3125 29.402344 C 23.460938 29.554688 23.636719 29.667969 23.832031 29.75 C 24.027344 29.832031 24.234375 29.871094 24.445312 29.871094 L 44.191406 29.871094 C 44.515625 29.871094 44.835938 29.839844 45.15625 29.777344 C 45.472656 29.714844 45.78125 29.621094 46.082031 29.496094 C 46.378906 29.371094 46.664062 29.21875 46.933594 29.039062 C 47.203125 28.859375 47.453125 28.652344 47.683594 28.425781 C 47.914062 28.195312 48.117188 27.945312 48.296875 27.675781 C 48.476562 27.40625 48.628906 27.121094 48.753906 26.824219 C 48.878906 26.523438 48.972656 26.214844 49.035156 25.898438 C 49.097656 25.578125 49.132812 25.257812 49.132812 24.933594 Z M 49.132812 24.933594 " fill-opacity="1" fill-rule="nonzero"/></g><path fill="#c7c7c7" d="M 52.035156 37.015625 L 33.210938 37.015625 C 33 37.015625 32.792969 37.054688 32.597656 37.136719 C 32.402344 37.21875 32.226562 37.335938 32.078125 37.484375 C 31.925781 37.636719 31.8125 37.808594 31.730469 38.003906 C 31.648438 38.203125 31.605469 38.40625 31.605469 38.621094 C 31.605469 38.832031 31.648438 39.035156 31.730469 39.234375 C 31.8125 39.429688 31.925781 39.601562 32.078125 39.753906 C 32.226562 39.902344 32.402344 40.019531 32.597656 40.101562 C 32.792969 40.183594 33 40.222656 33.210938 40.222656 L 52.035156 40.222656 C 52.246094 40.222656 52.449219 40.261719 52.644531 40.335938 C 52.84375 40.410156 53.019531 40.515625 53.179688 40.65625 C 53.335938 40.792969 53.464844 40.957031 53.5625 41.144531 C 53.660156 41.328125 53.726562 41.527344 53.75 41.734375 C 53.777344 41.945312 53.765625 42.152344 53.71875 42.355469 C 53.671875 42.5625 53.585938 42.75 53.46875 42.925781 C 53.351562 43.097656 53.207031 43.246094 53.035156 43.371094 C 52.863281 43.492188 52.675781 43.578125 52.472656 43.632812 C 52.265625 43.683594 52.0625 43.699219 51.851562 43.679688 C 51.640625 43.65625 51.441406 43.597656 51.253906 43.503906 C 51.066406 43.410156 50.902344 43.285156 50.757812 43.128906 C 50.617188 42.976562 50.503906 42.800781 50.425781 42.605469 C 50.347656 42.40625 50.234375 42.230469 50.085938 42.078125 C 49.9375 41.921875 49.761719 41.804688 49.566406 41.722656 C 49.371094 41.636719 49.164062 41.59375 48.953125 41.589844 C 48.738281 41.589844 48.53125 41.628906 48.335938 41.707031 C 48.136719 41.789062 47.960938 41.902344 47.808594 42.054688 C 47.65625 42.203125 47.539062 42.375 47.457031 42.574219 C 47.375 42.769531 47.332031 42.976562 47.332031 43.191406 C 47.332031 43.402344 47.371094 43.609375 47.453125 43.804688 C 47.679688 44.363281 47.992188 44.863281 48.402344 45.304688 C 48.808594 45.746094 49.28125 46.101562 49.816406 46.371094 C 50.351562 46.640625 50.917969 46.804688 51.515625 46.867188 C 52.113281 46.929688 52.703125 46.886719 53.285156 46.734375 C 53.863281 46.582031 54.398438 46.332031 54.890625 45.984375 C 55.378906 45.636719 55.792969 45.214844 56.128906 44.71875 C 56.464844 44.21875 56.703125 43.679688 56.839844 43.09375 C 56.980469 42.511719 57.007812 41.921875 56.933594 41.324219 C 56.855469 40.730469 56.675781 40.167969 56.394531 39.636719 C 56.113281 39.105469 55.746094 38.644531 55.296875 38.246094 C 54.84375 37.851562 54.339844 37.546875 53.777344 37.332031 C 53.214844 37.121094 52.632812 37.015625 52.035156 37.015625 Z M 52.035156 37.015625 " fill-opacity="1" fill-rule="nonzero"/><g clip-path="url(#3f7f067f4d)"><path fill="#c7c7c7" d="M 55.867188 22.554688 C 55.242188 22.554688 54.628906 22.644531 54.03125 22.828125 C 53.433594 23.011719 52.875 23.277344 52.359375 23.628906 C 51.839844 23.980469 51.386719 24.398438 50.996094 24.886719 C 50.601562 25.375 50.292969 25.910156 50.0625 26.492188 C 49.980469 26.691406 49.945312 26.894531 49.945312 27.109375 C 49.949219 27.320312 49.992188 27.523438 50.074219 27.71875 C 50.160156 27.914062 50.277344 28.089844 50.429688 28.238281 C 50.582031 28.386719 50.753906 28.5 50.953125 28.578125 C 51.148438 28.65625 51.355469 28.695312 51.566406 28.695312 C 51.78125 28.691406 51.984375 28.648438 52.179688 28.566406 C 52.375 28.480469 52.546875 28.363281 52.695312 28.210938 C 52.84375 28.058594 52.957031 27.886719 53.039062 27.6875 C 53.265625 27.105469 53.640625 26.640625 54.15625 26.289062 C 54.671875 25.9375 55.242188 25.761719 55.867188 25.761719 C 56.277344 25.761719 56.671875 25.839844 57.050781 25.996094 C 57.425781 26.152344 57.761719 26.375 58.050781 26.664062 C 58.339844 26.953125 58.5625 27.289062 58.71875 27.667969 C 58.875 28.042969 58.953125 28.4375 58.953125 28.847656 C 58.953125 29.257812 58.875 29.652344 58.71875 30.027344 C 58.5625 30.40625 58.339844 30.742188 58.050781 31.03125 C 57.761719 31.320312 57.425781 31.542969 57.050781 31.699219 C 56.671875 31.855469 56.277344 31.933594 55.867188 31.933594 L 29.601562 31.933594 C 29.386719 31.933594 29.183594 31.976562 28.988281 32.058594 C 28.789062 32.136719 28.617188 32.253906 28.46875 32.40625 C 28.316406 32.554688 28.199219 32.726562 28.121094 32.925781 C 28.039062 33.121094 27.996094 33.324219 27.996094 33.539062 C 27.996094 33.75 28.039062 33.953125 28.121094 34.152344 C 28.199219 34.347656 28.316406 34.519531 28.46875 34.671875 C 28.617188 34.820312 28.789062 34.9375 28.988281 35.019531 C 29.183594 35.101562 29.386719 35.140625 29.601562 35.140625 L 55.867188 35.140625 C 59.320312 35.140625 62.128906 32.316406 62.128906 28.847656 C 62.128906 25.378906 59.320312 22.554688 55.867188 22.554688 Z M 55.867188 22.554688 " fill-opacity="1" fill-rule="nonzero"/></g><g clip-path="url(#13ff3ccb02)"><g clip-path="url(#806ad8095b)"><path fill="#c7c7c7" d="M 16.035156 36.613281 L 29.664062 36.613281 L 29.664062 39.875 L 16.035156 39.875 Z M 16.035156 36.613281 " fill-opacity="1" fill-rule="nonzero"/></g></g><g clip-path="url(#ddcd8d1b96)"><g clip-path="url(#cd94070e83)"><path fill="#c7c7c7" d="M 21.335938 31.847656 L 30.644531 31.847656 L 30.644531 35.15625 L 21.335938 35.15625 Z M 21.335938 31.847656 " fill-opacity="1" fill-rule="nonzero"/></g></g><g clip-path="url(#58bbabf467)"><g clip-path="url(#5157b94121)"><path fill="#c7c7c7" d="M 9.863281 31.847656 L 19.171875 31.847656 L 19.171875 35.15625 L 9.863281 35.15625 Z M 9.863281 31.847656 " fill-opacity="1" fill-rule="nonzero"/></g></g><g clip-path="url(#c0d2515e94)"><g clip-path="url(#128df339c0)"><path fill="#c7c7c7" d="M 11.378906 26.46875 L 20.6875 26.46875 L 20.6875 29.773438 L 11.378906 29.773438 Z M 11.378906 26.46875 " fill-opacity="1" fill-rule="nonzero"/></g></g></svg>